<?xml version="1.0" encoding="utf-8"?>
<!-- Generator: Adobe Illustrator 21.1.0, SVG Export Plug-In . SVG Version: 6.00 Build 0)  -->
<svg version="1.1" id="Layer_1" xmlns="http://www.w3.org/2000/svg" xmlns:xlink="http://www.w3.org/1999/xlink" x="0px" y="0px"
	 viewBox="0 0 1920 1080" style="enable-background:new 0 0 1920 1080;" xml:space="preserve">
<style type="text/css">
	.st0{opacity:0.1;fill:#0A4159;enable-background:new    ;}
	.st1{fill:#464A5F;}
	.st2{opacity:0.1;enable-background:new    ;}
	.st3{fill:#9C9CA1;}
	.st4{opacity:0.1;}
	.st5{fill:#939498;}
	.st6{fill:#0A4159;}
	.st7{fill:none;stroke:#565987;stroke-miterlimit:10;}
	.st8{fill:url(#SVGID_1_);}
	.st9{fill:#464353;}
	.st10{fill:#ECB4B6;}
	.st11{fill:#C17174;}
	.st12{fill:#5E5A6B;}
	.st13{opacity:0.5;fill:#DEE3F3;enable-background:new    ;}
	.st14{opacity:0.45;}
	.st15{opacity:0.5;fill:#0A4159;enable-background:new    ;}
	.st16{fill:url(#SVGID_2_);}
	.st17{fill:url(#SVGID_3_);}
	.st18{fill:url(#SVGID_4_);}
	.st19{fill:url(#SVGID_5_);}
	.st20{opacity:0.3;enable-background:new    ;}
	.st21{fill:#DEE3F3;}
	.st22{fill:none;stroke:#FC6681;stroke-width:2;stroke-miterlimit:10;}
	.st23{fill:#FC6681;}
	.st24{fill:none;stroke:#FFD037;stroke-width:2;stroke-miterlimit:10;}
	.st25{fill:#FFD037;}
	.st26{fill:#A8A8A8;}
	.st27{opacity:0.2;enable-background:new    ;}
</style>
<path class="st0" d="M181.9,548.5c-21.1-8.6-43.4-15.7-66.1-14.8c-33.5,1.3-65.5,21.4-81.3,51c-13.3,25-15,54.4-20.7,82.1
	C6.7,701-6.9,733.5-21.4,765.3c-7.8,17.1-16,34.5-17.3,53.3c-1.8,26,10.7,51.9,30.1,69.2c19.5,17.3,45.4,26.4,71.4,28.4
	c13.8,1.1,28.3,0.1,40.6-6.4c13-6.8,22.5-19.1,35.5-25.8c12.1-6.2,26.2-7.1,39.8-6.3c17.8,1.1,35.3,4.8,52,11
	c19,7.1,36.6,17.4,55.5,24.7c18.9,7.2,40.1,11.3,59.4,5.2c18.2-5.7,32.5-19.4,45.5-33.3c21.3-22.9,40.7-47.4,58-73.4
	c11.7-17.5,22.6-36,27.7-56.4c9.9-39-3.7-83-33.9-109.6c-25-22.1-58.5-31.6-91.3-37.5c-29.9-5.3-64.5-5.6-92.1-19.4
	C233.3,575.9,209.4,559.7,181.9,548.5z"/>
<polygon class="st1" points="394,809.7 394.8,810.5 395.1,809.1 394.8,807.7 393.8,807.7 "/>
<polygon class="st2" points="394,809.7 394.8,810.5 395.1,809.1 394.8,807.7 393.8,807.7 "/>
<polygon class="st3" points="394,809.7 394.8,810.5 394,811.4 393.2,811.1 392.9,810.7 "/>
<polygon class="st2" points="394,809.7 394.8,810.5 394,811.4 393.2,811.1 392.9,810.7 "/>
<path class="st3" d="M246.7,664.3l-87.5,87.5c-3.3,3.3-3.3,8.6,0,11.9l134.1,135.2c3.3,3.3,8.6,3.3,11.9,0.1l88.8-87.6L246.7,664.3z
	"/>
<path class="st2" d="M246.7,664.3l-87.5,87.5c-3.3,3.3-3.3,8.6,0,11.9l134.1,135.2c3.3,3.3,8.6,3.3,11.9,0.1l88.8-87.6L246.7,664.3z
	"/>
<path class="st3" d="M246.7,662.5l-87.5,87.5c-3.3,3.3-3.3,8.6,0,11.9l134.1,135.2c3.3,3.3,8.6,3.3,11.9,0.1l88.8-87.6L246.7,662.5z
	"/>
<path class="st1" d="M255.9,601l-8,60.9l147.3,147.1l8.5-61.9c0.4-2.8-0.6-5.6-2.6-7.6L258.9,600c-0.7-0.7-1.8-0.7-2.5,0
	C256.1,600.3,255.9,600.6,255.9,601z"/>
<path class="st2" d="M255.9,601l-8,60.9l147.3,147.1l8.5-61.9c0.4-2.8-0.6-5.6-2.6-7.6L258.9,600c-0.7-0.7-1.8-0.7-2.5,0
	C256.1,600.3,255.9,600.6,255.9,601z"/>
<path class="st1" d="M254.7,601.6l-8,60.9L394,809.7l8.5-61.9c0.4-2.8-0.6-5.6-2.6-7.6L257.7,600.6c-0.7-0.7-1.8-0.7-2.5,0
	C254.9,600.9,254.8,601.2,254.7,601.6z"/>
<g class="st4">
	<path d="M247.1,690.5l-5.3,5.4c-0.7,0.7-0.7,1.7,0,2.4c0,0,0,0,0,0l5.4,5.5c0.6,0.7,1.7,0.7,2.4,0l5.3-5c0.7-0.6,0.7-1.7,0.1-2.4
		l-5.4-5.9C248.9,689.9,247.8,689.9,247.1,690.5C247.1,690.5,247.1,690.5,247.1,690.5z"/>
	<path d="M257,700.5l-5.3,5.4c-0.6,0.7-0.6,1.7,0,2.4l5.4,5.5c0.6,0.7,1.7,0.7,2.4,0.1c0,0,0,0,0,0l5.3-5c0.7-0.6,0.7-1.7,0.1-2.4
		l-5.4-5.9C258.8,699.8,257.7,699.8,257,700.5C257,700.4,257,700.5,257,700.5z"/>
	<path d="M267.4,710.9l-5.3,5.4c-0.6,0.7-0.6,1.7,0,2.4l5.4,5.5c0.6,0.7,1.7,0.7,2.4,0l5.3-5c0.7-0.6,0.7-1.7,0.1-2.4l-5.4-5.9
		C269.3,710.2,268.2,710.2,267.4,710.9C267.5,710.8,267.4,710.9,267.4,710.9z"/>
	<path d="M278,721.4l-5.3,5.4c-0.6,0.7-0.6,1.7,0,2.4l5.4,5.5c0.6,0.7,1.7,0.7,2.4,0l5.3-5c0.7-0.6,0.7-1.7,0.1-2.4l-5.4-5.9
		C279.8,720.8,278.7,720.7,278,721.4C278,721.4,278,721.4,278,721.4z"/>
	<path d="M288.5,732l-5.3,5.4c-0.7,0.7-0.7,1.7,0,2.4l5.4,5.5c0.6,0.7,1.7,0.7,2.4,0l5.3-5c0.7-0.6,0.7-1.7,0.1-2.4l-5.4-5.9
		C290.4,731.4,289.3,731.3,288.5,732C288.6,731.9,288.5,732,288.5,732z"/>
	<path d="M299.7,741.8l-6.6,6.7c-0.3,0.3-0.3,0.8,0,1.1l6.6,6.8c0.3,0.3,0.8,0.3,1.1,0l6.6-6.2c0.3-0.3,0.3-0.8,0-1.1l-6.6-7.3
		C300.6,741.5,300.1,741.5,299.7,741.8C299.7,741.8,299.7,741.8,299.7,741.8z"/>
	<path d="M310.2,752.4l-6.6,6.7c-0.3,0.3-0.3,0.8,0,1.1l6.6,6.8c0.3,0.3,0.8,0.3,1.1,0l6.6-6.2c0.3-0.3,0.3-0.8,0-1.1l-6.6-7.3
		C311.1,752.1,310.6,752.1,310.2,752.4C310.3,752.4,310.3,752.4,310.2,752.4z"/>
	<path d="M319.6,761.7l-6.6,6.7c-0.3,0.3-0.3,0.8,0,1.1l6.6,6.8c0.3,0.3,0.8,0.3,1.1,0l6.6-6.2c0.3-0.3,0.3-0.8,0-1.1l-6.6-7.2
		C320.4,761.4,319.9,761.4,319.6,761.7C319.6,761.7,319.6,761.7,319.6,761.7z"/>
	<path d="M330,772.2l-6.6,6.7c-0.3,0.3-0.3,0.8,0,1.1l6.6,6.8c0.3,0.3,0.8,0.3,1.1,0l6.6-6.2c0.3-0.3,0.3-0.8,0-1.1l-6.6-7.3
		C330.9,771.9,330.4,771.8,330,772.2C330,772.2,330,772.2,330,772.2z"/>
	<path d="M340.2,782.3l-6.6,6.7c-0.3,0.3-0.3,0.8,0,1.1l6.6,6.8c0.3,0.3,0.8,0.3,1.1,0l6.6-6.2c0.3-0.3,0.3-0.8,0-1.1l-6.7-7.2
		C341,782,340.5,782,340.2,782.3C340.2,782.3,340.2,782.3,340.2,782.3z"/>
	<path d="M350.3,792.4l-6.6,6.7c-0.3,0.3-0.3,0.8,0,1.1l6.6,6.8c0.3,0.3,0.8,0.3,1.1,0l6.6-6.2c0.3-0.3,0.3-0.8,0-1.1l-6.6-7.3
		C351.1,792.1,350.6,792.1,350.3,792.4C350.3,792.4,350.3,792.4,350.3,792.4z"/>
	<path d="M360.4,802.5l-6.6,6.7c-0.3,0.3-0.3,0.8,0,1.1l6.6,6.8c0.3,0.3,0.8,0.3,1.1,0l6.6-6.2c0.3-0.3,0.3-0.8,0-1.1l-6.6-7.3
		C361.2,802.2,360.7,802.2,360.4,802.5C360.4,802.5,360.4,802.5,360.4,802.5z"/>
	<path d="M237.4,700.2l-5.3,5.4c-0.7,0.7-0.7,1.7,0,2.4c0,0,0,0,0,0l5.4,5.5c0.6,0.7,1.7,0.7,2.4,0.1c0,0,0,0,0,0l5.3-5
		c0.7-0.6,0.7-1.7,0.1-2.4l-5.4-5.9C239.3,699.5,238.2,699.5,237.4,700.2C237.5,700.1,237.5,700.2,237.4,700.2z"/>
	<path d="M216.4,721.2l-5.3,5.4c-0.7,0.7-0.7,1.7,0,2.4l5.4,5.5c0.6,0.7,1.7,0.7,2.4,0.1l5.3-5c0.7-0.6,0.7-1.7,0.1-2.4l-5.4-5.9
		C218.2,720.6,217.1,720.5,216.4,721.2C216.4,721.2,216.4,721.2,216.4,721.2z"/>
	<path d="M247.4,710.1l-5.3,5.4c-0.7,0.7-0.7,1.7,0,2.4c0,0,0,0,0,0l5.4,5.5c0.6,0.7,1.7,0.7,2.4,0.1l5.3-5c0.7-0.6,0.7-1.7,0.1-2.4
		l-5.4-5.9C249.2,709.5,248.1,709.4,247.4,710.1C247.4,710.1,247.4,710.1,247.4,710.1z"/>
	<path d="M257.8,720.5l-5.3,5.4c-0.6,0.7-0.6,1.7,0,2.4l5.4,5.5c0.6,0.7,1.7,0.7,2.4,0.1c0,0,0,0,0,0l5.3-5c0.7-0.6,0.7-1.7,0.1-2.4
		l-5.4-5.9C259.6,719.9,258.6,719.8,257.8,720.5C257.8,720.5,257.8,720.5,257.8,720.5z"/>
	<path d="M268.3,731.1l-5.3,5.4c-0.6,0.7-0.6,1.7,0,2.4l5.4,5.5c0.6,0.7,1.7,0.7,2.4,0l5.3-5c0.7-0.6,0.7-1.7,0.1-2.4l-5.4-5.9
		C270.1,730.4,269.1,730.4,268.3,731.1C268.4,731,268.3,731.1,268.3,731.1z"/>
	<path d="M226.6,730.8l-5.3,5.4c-0.6,0.7-0.6,1.7,0,2.4l5.4,5.5c0.6,0.7,1.7,0.7,2.4,0.1c0,0,0,0,0,0l5.3-5c0.7-0.6,0.7-1.7,0.1-2.4
		l-5.4-5.9C228.5,730.2,227.4,730.1,226.6,730.8C226.7,730.8,226.7,730.8,226.6,730.8z"/>
	<path d="M237.1,741.2l-5.3,5.4c-0.7,0.7-0.7,1.7,0,2.4c0,0,0,0,0,0l5.4,5.5c0.6,0.7,1.7,0.7,2.4,0.1c0,0,0,0,0,0l5.3-5
		c0.7-0.6,0.7-1.7,0.1-2.4l-5.4-5.9C238.9,740.6,237.9,740.5,237.1,741.2C237.1,741.2,237.1,741.2,237.1,741.2z"/>
	<path d="M247.6,751.8l-5.3,5.4c-0.6,0.7-0.6,1.7,0,2.4l5.4,5.5c0.6,0.7,1.7,0.7,2.4,0l5.3-5c0.7-0.6,0.7-1.7,0.1-2.4l-5.4-5.9
		C249.5,751.1,248.4,751.1,247.6,751.8C247.7,751.7,247.6,751.8,247.6,751.8z"/>
	<path d="M278.9,741.6l-5.3,5.4c-0.6,0.7-0.6,1.7,0,2.4l5.4,5.5c0.6,0.7,1.7,0.7,2.4,0.1c0,0,0,0,0,0l5.3-5c0.7-0.6,0.7-1.7,0.1-2.4
		c0,0,0,0,0,0l-5.4-5.9C280.7,741,279.6,740.9,278.9,741.6C278.9,741.6,278.9,741.6,278.9,741.6z"/>
	<path d="M289.4,752.2l-5.3,5.4c-0.6,0.7-0.6,1.7,0,2.4l5.4,5.5c0.6,0.7,1.7,0.7,2.4,0.1c0,0,0,0,0,0l5.3-5c0.7-0.6,0.7-1.7,0.1-2.4
		l-5.4-5.9C291.2,751.5,290.2,751.5,289.4,752.2C289.4,752.1,289.4,752.1,289.4,752.2z"/>
	<path d="M300.6,762l-6.6,6.7c-0.3,0.3-0.3,0.8,0,1.1l6.6,6.8c0.3,0.3,0.8,0.3,1.1,0l6.6-6.2c0.3-0.3,0.3-0.8,0-1.1l-6.6-7.3
		C301.5,761.7,301,761.7,300.6,762C300.6,762,300.6,762,300.6,762z"/>
	<path d="M309.9,771.3l-6.6,6.7c-0.3,0.3-0.3,0.8,0,1.1l6.6,6.8c0.3,0.3,0.8,0.3,1.1,0l6.6-6.2c0.3-0.3,0.3-0.8,0-1.1l-6.6-7.3
		C310.8,771,310.3,771,309.9,771.3C310,771.3,310,771.3,309.9,771.3z"/>
	<path d="M320.4,781.8l-6.6,6.7c-0.3,0.3-0.3,0.8,0,1.1l6.6,6.8c0.3,0.3,0.8,0.3,1.1,0l6.6-6.2c0.3-0.3,0.3-0.8,0-1.1l-6.6-7.3
		C321.2,781.5,320.7,781.5,320.4,781.8C320.4,781.8,320.4,781.8,320.4,781.8z"/>
	<path d="M330.5,791.9l-6.6,6.7c-0.3,0.3-0.3,0.8,0,1.1l6.6,6.8c0.3,0.3,0.8,0.3,1.1,0l6.6-6.2c0.3-0.3,0.3-0.8,0-1.1l-6.6-7.3
		C331.4,791.6,330.9,791.6,330.5,791.9C330.5,791.9,330.5,791.9,330.5,791.9z"/>
	<path d="M247.8,730.6l-5.3,5.4c-0.6,0.7-0.6,1.7,0,2.4l5.4,5.5c0.6,0.7,1.7,0.7,2.4,0.1c0,0,0,0,0,0l5.3-5c0.7-0.6,0.7-1.7,0.1-2.4
		l-5.4-5.9C249.6,729.9,248.5,729.9,247.8,730.6C247.8,730.5,247.8,730.5,247.8,730.6z"/>
	<path d="M258.3,741.1l-5.3,5.4c-0.6,0.7-0.6,1.7,0,2.4l5.4,5.5c0.6,0.7,1.7,0.7,2.4,0.1c0,0,0,0,0,0l5.3-5c0.7-0.6,0.7-1.7,0.1-2.4
		l-5.4-5.9C260.2,740.4,259.1,740.4,258.3,741.1C258.4,741,258.3,741.1,258.3,741.1z"/>
	<path d="M268.8,751.6l-5.3,5.4c-0.6,0.7-0.6,1.7,0,2.4l5.4,5.5c0.6,0.7,1.7,0.7,2.4,0.1c0,0,0,0,0,0l5.3-5c0.7-0.6,0.7-1.7,0.1-2.4
		l-5.4-5.9C270.7,751,269.6,750.9,268.8,751.6C268.9,751.6,268.9,751.6,268.8,751.6z"/>
	<path d="M279.4,762.2l-5.3,5.4c-0.6,0.7-0.6,1.7,0,2.4l5.4,5.5c0.6,0.7,1.7,0.7,2.4,0.1c0,0,0,0,0,0l5.3-5c0.7-0.6,0.7-1.7,0.1-2.4
		l-5.4-5.9C281.2,761.5,280.2,761.5,279.4,762.2C279.4,762.1,279.4,762.1,279.4,762.2z"/>
	<path d="M290.6,772l-6.6,6.7c-0.3,0.3-0.3,0.8,0,1.1l6.6,6.8c0.3,0.3,0.8,0.3,1.1,0l6.6-6.2c0.3-0.3,0.3-0.8,0-1.1l-6.6-7.3
		C291.4,771.7,290.9,771.7,290.6,772C290.6,772,290.6,772,290.6,772z"/>
	<path d="M299.9,781.4l-6.6,6.7c-0.3,0.3-0.3,0.8,0,1.1l6.6,6.8c0.3,0.3,0.8,0.3,1.1,0l6.6-6.2c0.3-0.3,0.3-0.8,0-1.1l-6.6-7.3
		C300.8,781.1,300.3,781.1,299.9,781.4C300,781.4,299.9,781.4,299.9,781.4z"/>
	<path d="M310.4,791.8l-6.6,6.7c-0.3,0.3-0.3,0.8,0,1.1l6.6,6.8c0.3,0.3,0.8,0.3,1.1,0l6.6-6.2c0.3-0.3,0.3-0.8,0-1.1l-6.6-7.3
		C311.2,791.5,310.7,791.5,310.4,791.8C310.4,791.8,310.4,791.8,310.4,791.8z"/>
	<path d="M320.5,802l-6.6,6.7c-0.3,0.3-0.3,0.8,0,1.1l6.6,6.8c0.3,0.3,0.8,0.3,1.1,0l6.6-6.2c0.3-0.3,0.3-0.8,0-1.1l-6.6-7.3
		C321.4,801.7,320.9,801.6,320.5,802C320.5,801.9,320.5,802,320.5,802z"/>
	<path d="M340.6,802.1l-6.6,6.7c-0.3,0.3-0.3,0.8,0,1.1l6.6,6.8c0.3,0.3,0.8,0.3,1.1,0l6.6-6.2c0.3-0.3,0.3-0.8,0-1.1l-6.6-7.3
		C341.5,801.8,341,801.7,340.6,802.1C340.7,802,340.7,802,340.6,802.1z"/>
	<path d="M350.8,812.2l-6.6,6.7c-0.3,0.3-0.3,0.8,0,1.1l6.7,6.8c0.3,0.3,0.8,0.3,1.1,0l6.6-6.2c0.3-0.3,0.3-0.8,0-1.1l-6.6-7.3
		C351.6,811.9,351.1,811.9,350.8,812.2C350.8,812.2,350.8,812.2,350.8,812.2z"/>
	<path d="M299.5,802.7l-6.2,6.3c-0.4,0.4-0.4,1.1,0,1.5l6.3,6.4c0.4,0.4,1.1,0.4,1.5,0l6.2-5.9c0.4-0.4,0.4-1,0.1-1.5l-6.3-6.9
		C300.7,802.3,300,802.3,299.5,802.7C299.5,802.7,299.5,802.7,299.5,802.7z"/>
	<path d="M309.6,812.8l-6.2,6.3c-0.4,0.4-0.4,1.1,0,1.5l6.3,6.4c0.4,0.4,1.1,0.4,1.5,0l6.2-5.9c0.4-0.4,0.4-1.1,0.1-1.5l-6.3-6.9
		C310.7,812.4,310.1,812.4,309.6,812.8C309.6,812.8,309.6,812.8,309.6,812.8z"/>
	<path d="M319.7,823l-6.2,6.3c-0.4,0.4-0.4,1.1,0,1.5l6.3,6.4c0.4,0.4,1.1,0.4,1.5,0l6.2-5.9c0.4-0.4,0.5-1.1,0.1-1.5l-6.3-6.8
		C320.9,822.6,320.2,822.5,319.7,823C319.8,822.9,319.8,822.9,319.7,823z"/>
	<path d="M330,832.9l-6.6,6.7c-0.3,0.3-0.3,0.8,0,1.1l6.6,6.8c0.3,0.3,0.8,0.3,1.1,0l6.6-6.2c0.3-0.3,0.3-0.8,0-1.1l-6.6-7.3
		C330.9,832.6,330.4,832.6,330,832.9C330.1,832.9,330.1,832.9,330,832.9z"/>
	<path d="M227,710.1l-5.7,5.8c-0.7,0.7-0.7,1.7,0,2.4c0,0,0,0,0,0l15.8,15.6c0.6,0.6,1.7,0.7,2.3,0l5.9-5.5c0.7-0.6,0.7-1.7,0.1-2.4
		c0,0,0,0,0,0l-16-15.9C228.7,709.4,227.7,709.4,227,710.1z"/>
	<path d="M330.4,812.2l-6.9,7c-0.3,0.3-0.3,0.8,0,1.1l17,16.9c0.3,0.3,0.8,0.3,1.1,0l7.2-6.8c0.3-0.3,0.3-0.8,0-1.1c0,0,0,0,0,0
		l-17.3-17.2C331.2,811.8,330.7,811.9,330.4,812.2z"/>
	<path d="M258.5,761.7l-6.6,6.5c-0.3,0.3-0.3,0.8,0,1.1c0,0,0,0,0,0l36.7,37.7c0.3,0.3,0.8,0.3,1.1,0l7.2-6.8c0.3-0.3,0.3-0.8,0-1.1
		c0,0,0,0,0,0l-37.3-37.4C259.3,761.4,258.8,761.4,258.5,761.7z"/>
</g>
<path class="st1" d="M247.1,689.4l-5.3,5.4c-0.6,0.7-0.6,1.7,0,2.4l5.4,5.5c0.6,0.7,1.7,0.7,2.4,0l5.3-5c0.7-0.6,0.7-1.7,0.1-2.4
	l-5.4-5.9C248.9,688.8,247.8,688.7,247.1,689.4C247.1,689.3,247.1,689.4,247.1,689.4z"/>
<path class="st1" d="M257,699.3l-5.3,5.4c-0.6,0.7-0.6,1.7,0,2.4l5.4,5.5c0.6,0.7,1.7,0.7,2.4,0.1c0,0,0,0,0,0l5.3-5
	c0.7-0.6,0.7-1.7,0.1-2.4l-5.4-5.9C258.8,698.7,257.8,698.6,257,699.3C257,699.3,257,699.3,257,699.3z"/>
<path class="st1" d="M267.4,709.7l-5.3,5.4c-0.6,0.7-0.6,1.7,0,2.4l5.4,5.5c0.6,0.7,1.7,0.7,2.4,0l5.3-5c0.7-0.6,0.7-1.7,0.1-2.4
	c0,0,0,0,0,0l-5.4-5.9C269.3,709.1,268.2,709,267.4,709.7C267.5,709.7,267.4,709.7,267.4,709.7z"/>
<path class="st1" d="M278,720.3l-5.3,5.4c-0.7,0.7-0.7,1.7,0,2.4l5.4,5.5c0.6,0.7,1.7,0.7,2.4,0l5.3-5c0.7-0.6,0.7-1.7,0.1-2.4
	l-5.4-5.9C279.8,719.6,278.7,719.6,278,720.3C278,720.2,278,720.3,278,720.3z"/>
<path class="st1" d="M288.5,730.8l-5.3,5.4c-0.7,0.7-0.7,1.7,0,2.4l5.4,5.5c0.6,0.7,1.7,0.7,2.4,0.1l5.3-5c0.7-0.6,0.7-1.7,0.1-2.4
	c0,0,0,0,0,0l-5.4-5.9C290.4,730.2,289.3,730.1,288.5,730.8C288.6,730.8,288.5,730.8,288.5,730.8z"/>
<path class="st1" d="M299.7,740.7l-6.6,6.7c-0.3,0.3-0.3,0.8,0,1.1l6.6,6.8c0.3,0.3,0.8,0.3,1.1,0l6.6-6.2c0.3-0.3,0.3-0.8,0-1.1
	l-6.6-7.3C300.5,740.4,300,740.4,299.7,740.7C299.7,740.7,299.7,740.7,299.7,740.7z"/>
<path class="st1" d="M310.2,751.2l-6.6,6.7c-0.3,0.3-0.3,0.8,0,1.1l6.6,6.8c0.3,0.3,0.8,0.3,1.1,0l6.6-6.2c0.3-0.3,0.3-0.8,0-1.1
	l-6.6-7.3C311.1,750.9,310.6,750.9,310.2,751.2C310.3,751.2,310.3,751.2,310.2,751.2z"/>
<path class="st1" d="M319.6,760.6l-6.6,6.7c-0.3,0.3-0.3,0.8,0,1.1l6.6,6.8c0.3,0.3,0.8,0.3,1.1,0l6.6-6.2c0.3-0.3,0.3-0.8,0-1.1
	l-6.6-7.3C320.4,760.3,319.9,760.2,319.6,760.6C319.6,760.5,319.6,760.6,319.6,760.6z"/>
<path class="st1" d="M330,771l-6.6,6.7c-0.3,0.3-0.3,0.8,0,1.1l6.6,6.8c0.3,0.3,0.8,0.3,1.1,0l6.6-6.2c0.3-0.3,0.3-0.8,0-1.1
	l-6.6-7.3C330.9,770.7,330.4,770.7,330,771C330.1,771,330,771,330,771z"/>
<path class="st1" d="M340.2,781.1l-6.6,6.7c-0.3,0.3-0.3,0.8,0,1.1l6.6,6.8c0.3,0.3,0.8,0.3,1.1,0l6.6-6.2c0.3-0.3,0.3-0.8,0-1.1
	l-6.7-7.3C341,780.8,340.5,780.8,340.2,781.1C340.2,781.1,340.2,781.1,340.2,781.1z"/>
<path class="st1" d="M350.3,791.3l-6.6,6.7c-0.3,0.3-0.3,0.8,0,1.1l6.6,6.8c0.3,0.3,0.8,0.3,1.1,0l6.6-6.2c0.3-0.3,0.3-0.8,0-1.1
	l-6.6-7.3C351.1,791,350.6,790.9,350.3,791.3C350.3,791.2,350.3,791.2,350.3,791.3z"/>
<path class="st1" d="M360.4,801.4l-6.6,6.7c-0.3,0.3-0.3,0.8,0,1.1l6.6,6.8c0.3,0.3,0.8,0.3,1.1,0l6.6-6.2c0.3-0.3,0.3-0.8,0-1.1
	l-6.6-7.3C361.2,801.1,360.7,801.1,360.4,801.4C360.4,801.4,360.4,801.4,360.4,801.4z"/>
<path class="st1" d="M237.4,699l-5.3,5.4c-0.6,0.7-0.6,1.7,0,2.4l5.4,5.5c0.6,0.7,1.7,0.7,2.4,0.1c0,0,0,0,0,0l5.3-5
	c0.7-0.6,0.7-1.7,0.1-2.4l-5.4-5.9C239.3,698.4,238.2,698.3,237.4,699C237.5,699,237.5,699,237.4,699z"/>
<path class="st1" d="M216.4,720.1l-5.3,5.4c-0.7,0.7-0.7,1.7,0,2.4l5.4,5.5c0.6,0.7,1.7,0.7,2.4,0.1l5.3-5c0.7-0.6,0.7-1.7,0.1-2.4
	l-5.4-5.9C218.2,719.4,217.1,719.4,216.4,720.1C216.4,720,216.4,720.1,216.4,720.1z"/>
<path class="st1" d="M247.4,709l-5.3,5.4c-0.6,0.7-0.6,1.7,0,2.4l5.4,5.5c0.6,0.7,1.7,0.7,2.4,0.1c0,0,0,0,0,0l5.3-5
	c0.7-0.6,0.7-1.7,0.1-2.4l-5.4-5.9C249.2,708.3,248.1,708.2,247.4,709C247.4,708.9,247.4,708.9,247.4,709z"/>
<path class="st1" d="M257.8,719.4l-5.3,5.4c-0.6,0.7-0.6,1.7,0,2.4l5.4,5.5c0.6,0.7,1.7,0.7,2.4,0.1c0,0,0,0,0,0l5.3-5
	c0.7-0.6,0.7-1.7,0.1-2.4l-5.4-5.9C259.6,718.7,258.5,718.7,257.8,719.4C257.8,719.3,257.8,719.4,257.8,719.4z"/>
<path class="st1" d="M268.3,729.9l-5.3,5.4c-0.6,0.7-0.6,1.7,0,2.4l5.4,5.5c0.6,0.7,1.7,0.7,2.4,0l5.3-5c0.7-0.6,0.7-1.7,0.1-2.4
	l-5.4-5.9C270.2,729.3,269.1,729.2,268.3,729.9C268.4,729.9,268.3,729.9,268.3,729.9z"/>
<path class="st1" d="M226.6,729.7l-5.3,5.4c-0.6,0.7-0.6,1.7,0,2.4l5.4,5.5c0.6,0.7,1.7,0.7,2.4,0.1c0,0,0,0,0,0l5.3-5
	c0.7-0.6,0.7-1.7,0.1-2.4l-5.4-5.9C228.5,729,227.4,729,226.6,729.7C226.7,729.6,226.7,729.6,226.6,729.7z"/>
<path class="st1" d="M237.1,740.1l-5.3,5.4c-0.6,0.7-0.6,1.7,0,2.4l5.4,5.5c0.6,0.7,1.7,0.7,2.4,0l5.3-5c0.7-0.6,0.7-1.7,0.1-2.4
	l-5.4-5.9C238.9,739.4,237.8,739.4,237.1,740.1C237.1,740,237.1,740.1,237.1,740.1z"/>
<path class="st1" d="M247.6,750.6l-5.3,5.4c-0.6,0.7-0.6,1.7,0,2.4l5.4,5.5c0.6,0.7,1.7,0.7,2.4,0l5.3-5c0.7-0.6,0.7-1.7,0.1-2.4
	l-5.4-5.9C249.5,750,248.4,749.9,247.6,750.6C247.7,750.6,247.6,750.6,247.6,750.6z"/>
<path class="st1" d="M278.9,740.5l-5.3,5.4c-0.6,0.7-0.6,1.7,0,2.4l5.4,5.5c0.6,0.7,1.7,0.7,2.4,0.1c0,0,0,0,0,0l5.3-5
	c0.7-0.6,0.7-1.7,0.1-2.4c0,0,0,0,0,0l-5.4-5.9C280.7,739.8,279.7,739.7,278.9,740.5C278.9,740.4,278.9,740.4,278.9,740.5z"/>
<path class="st1" d="M289.4,751l-5.3,5.4c-0.6,0.7-0.6,1.7,0,2.4l5.4,5.5c0.6,0.7,1.7,0.7,2.4,0.1c0,0,0,0,0,0l5.3-5
	c0.7-0.6,0.7-1.7,0.1-2.4l-5.4-5.9C291.3,750.4,290.2,750.3,289.4,751C289.5,750.9,289.4,751,289.4,751z"/>
<path class="st1" d="M300.6,760.9l-6.6,6.7c-0.3,0.3-0.3,0.8,0,1.1l6.6,6.8c0.3,0.3,0.8,0.3,1.1,0l6.6-6.2c0.3-0.3,0.3-0.8,0-1.1
	l-6.6-7.3C301.5,760.5,301,760.5,300.6,760.9C300.6,760.8,300.6,760.9,300.6,760.9z"/>
<path class="st1" d="M309.9,770.2l-6.6,6.7c-0.3,0.3-0.3,0.8,0,1.1l6.6,6.8c0.3,0.3,0.8,0.3,1.1,0l6.6-6.2c0.3-0.3,0.3-0.8,0-1.1
	l-6.6-7.3C310.8,769.9,310.3,769.9,309.9,770.2C310,770.2,310,770.2,309.9,770.2z"/>
<path class="st1" d="M320.4,780.7l-6.6,6.7c-0.3,0.3-0.3,0.8,0,1.1l6.6,6.8c0.3,0.3,0.8,0.3,1.1,0l6.6-6.2c0.3-0.3,0.3-0.8,0-1.1
	l-6.6-7.2C321.2,780.4,320.7,780.3,320.4,780.7C320.4,780.6,320.4,780.6,320.4,780.7z"/>
<path class="st1" d="M330.5,790.8l-6.6,6.7c-0.3,0.3-0.3,0.8,0,1.1l6.6,6.8c0.3,0.3,0.8,0.3,1.1,0l6.6-6.2c0.3-0.3,0.3-0.8,0-1.1
	l-6.6-7.3C331.4,790.5,330.9,790.4,330.5,790.8C330.5,790.8,330.5,790.8,330.5,790.8z"/>
<path class="st1" d="M247.8,729.4l-5.3,5.4c-0.6,0.7-0.6,1.7,0,2.4l5.4,5.5c0.6,0.7,1.7,0.7,2.4,0.1c0,0,0,0,0,0l5.3-5
	c0.7-0.6,0.7-1.7,0.1-2.4l-5.4-5.9C249.6,728.8,248.5,728.7,247.8,729.4C247.8,729.3,247.8,729.4,247.8,729.4z"/>
<path class="st1" d="M258.3,739.9l-5.3,5.4c-0.7,0.7-0.7,1.7,0,2.4c0,0,0,0,0,0l5.4,5.5c0.6,0.7,1.7,0.7,2.4,0.1c0,0,0,0,0,0l5.3-5
	c0.7-0.6,0.7-1.7,0.1-2.4l-5.4-5.9c-0.6-0.7-1.7-0.8-2.4-0.1C258.4,739.9,258.3,739.9,258.3,739.9z"/>
<path class="st1" d="M268.8,750.5l-5.3,5.4c-0.6,0.7-0.6,1.7,0,2.4l5.4,5.5c0.6,0.7,1.7,0.7,2.4,0.1c0,0,0,0,0,0l5.3-5
	c0.7-0.6,0.7-1.7,0.1-2.4l-5.4-5.9C270.7,749.8,269.6,749.8,268.8,750.5C268.9,750.4,268.9,750.4,268.8,750.5z"/>
<path class="st1" d="M279.4,761l-5.3,5.4c-0.7,0.7-0.7,1.7,0,2.4c0,0,0,0,0,0l5.4,5.5c0.6,0.7,1.7,0.7,2.4,0.1c0,0,0,0,0,0l5.3-5
	c0.7-0.6,0.7-1.7,0.1-2.4l-5.4-5.9C281.2,760.4,280.2,760.3,279.4,761C279.4,761,279.4,761,279.4,761z"/>
<path class="st1" d="M290.6,770.9l-6.6,6.7c-0.3,0.3-0.3,0.8,0,1.1l6.6,6.8c0.3,0.3,0.8,0.3,1.1,0l6.6-6.2c0.3-0.3,0.3-0.8,0-1.1
	l-6.6-7.3C291.5,770.6,291,770.6,290.6,770.9C290.6,770.9,290.6,770.9,290.6,770.9z"/>
<path class="st1" d="M299.9,780.2l-6.6,6.7c-0.3,0.3-0.3,0.8,0,1.1l6.6,6.8c0.3,0.3,0.8,0.3,1.1,0l6.6-6.2c0.3-0.3,0.3-0.8,0-1.1
	l-6.6-7.2C300.8,779.9,300.3,779.9,299.9,780.2C300,780.2,299.9,780.2,299.9,780.2z"/>
<path class="st1" d="M310.4,790.7l-6.6,6.7c-0.3,0.3-0.3,0.8,0,1.1l6.6,6.8c0.3,0.3,0.8,0.3,1.1,0l6.6-6.2c0.3-0.3,0.3-0.8,0-1.1
	l-6.6-7.3C311.2,790.4,310.7,790.3,310.4,790.7C310.4,790.6,310.4,790.7,310.4,790.7z"/>
<path class="st1" d="M320.5,800.8l-6.6,6.7c-0.3,0.3-0.3,0.8,0,1.1l6.6,6.8c0.3,0.3,0.8,0.3,1.1,0l6.6-6.2c0.3-0.3,0.3-0.8,0-1.1
	l-6.6-7.2C321.4,800.5,320.9,800.5,320.5,800.8C320.5,800.8,320.5,800.8,320.5,800.8z"/>
<path class="st1" d="M340.6,800.9l-6.6,6.7c-0.3,0.3-0.3,0.8,0,1.1l6.6,6.8c0.3,0.3,0.8,0.3,1.1,0l6.6-6.2c0.3-0.3,0.3-0.8,0-1.1
	l-6.6-7.3C341.5,800.6,341,800.6,340.6,800.9C340.7,800.9,340.6,800.9,340.6,800.9z"/>
<path class="st1" d="M350.8,811l-6.6,6.7c-0.3,0.3-0.3,0.8,0,1.1l6.6,6.8c0.3,0.3,0.8,0.3,1.1,0l6.6-6.2c0.3-0.3,0.3-0.8,0-1.1
	l-6.6-7.2C351.6,810.7,351.1,810.7,350.8,811C350.8,811,350.8,811,350.8,811z"/>
<path class="st1" d="M299.5,801.6l-6.2,6.3c-0.4,0.4-0.4,1.1,0,1.5l6.3,6.4c0.4,0.4,1.1,0.4,1.5,0l6.2-5.9c0.4-0.4,0.4-1.1,0.1-1.5
	l-6.3-6.9C300.6,801.2,300,801.1,299.5,801.6C299.5,801.5,299.5,801.6,299.5,801.6z"/>
<path class="st1" d="M309.6,811.7l-6.2,6.3c-0.4,0.4-0.4,1.1,0,1.5l6.3,6.4c0.4,0.4,1.1,0.4,1.5,0l6.2-5.9c0.4-0.4,0.4-1.1,0.1-1.5
	l-6.3-6.8C310.7,811.3,310.1,811.3,309.6,811.7C309.6,811.7,309.6,811.7,309.6,811.7z"/>
<path class="st1" d="M319.7,821.8l-6.2,6.3c-0.4,0.4-0.4,1.1,0,1.5l6.3,6.4c0.4,0.4,1.1,0.4,1.5,0l6.2-5.9c0.4-0.4,0.5-1.1,0.1-1.5
	l-6.3-6.9C320.9,821.4,320.2,821.4,319.7,821.8C319.8,821.8,319.8,821.8,319.7,821.8z"/>
<path class="st1" d="M330,831.7l-6.6,6.7c-0.3,0.3-0.3,0.8,0,1.1l6.6,6.8c0.3,0.3,0.8,0.3,1.1,0l6.6-6.2c0.3-0.3,0.3-0.8,0-1.1
	l-6.6-7.3C330.9,831.4,330.4,831.4,330,831.7C330.1,831.7,330.1,831.7,330,831.7z"/>
<path class="st1" d="M227,708.9l-5.7,5.8c-0.7,0.7-0.7,1.7,0,2.4c0,0,0,0,0,0l15.8,15.6c0.6,0.6,1.7,0.7,2.3,0l5.9-5.5
	c0.7-0.6,0.7-1.7,0.1-2.4c0,0,0,0,0,0l-16-15.9C228.7,708.2,227.7,708.2,227,708.9z"/>
<path class="st1" d="M330.4,811l-6.9,7.1c-0.3,0.3-0.3,0.8,0,1.1l17,16.9c0.3,0.3,0.8,0.3,1.1,0l7.2-6.8c0.3-0.3,0.3-0.8,0-1.1
	c0,0,0,0,0,0L331.5,811C331.2,810.7,330.7,810.7,330.4,811z"/>
<path class="st1" d="M258.5,760.5l-6.6,6.5c-0.3,0.3-0.3,0.8,0,1.1c0,0,0,0,0,0l36.7,37.7c0.3,0.3,0.8,0.3,1.1,0l7.2-6.8
	c0.3-0.3,0.3-0.8,0-1.1c0,0,0,0,0,0l-37.3-37.4C259.3,760.2,258.8,760.2,258.5,760.5z"/>
<path class="st2" d="M232.6,765.1l-29,28.8c-1.7,1.7-1.7,4.4,0,6.1l53.7,55.1c1.7,1.7,4.4,1.7,6.1,0.1c0,0,0,0,0,0l29.9-29.4
	c1.7-1.7,1.7-4.4,0-6.1c0,0,0,0,0,0l-54.5-54.6C237,763.4,234.2,763.4,232.6,765.1z"/>
<path class="st5" d="M232.6,763.9l-29,28.8c-1.7,1.7-1.7,4.4,0,6.1l53.7,55.1c1.7,1.7,4.4,1.7,6.1,0.1c0,0,0,0,0,0l29.9-29.4
	c1.7-1.7,1.7-4.4,0-6.1c0,0,0,0,0,0L238.7,764C237,762.3,234.3,762.3,232.6,763.9z"/>
<path class="st6" d="M260.4,612.7l-7.3,51.4l136.1,135.7l6.9-50.9c0.4-2.8-0.6-5.6-2.6-7.6L263.5,611.7c-0.7-0.7-1.8-0.7-2.5,0
	C260.7,611.9,260.5,612.3,260.4,612.7z"/>
<ellipse class="st0" cx="88.2" cy="860.1" rx="11.1" ry="1.5"/>
<ellipse class="st0" cx="45.8" cy="864.4" rx="11.1" ry="1.5"/>
<ellipse class="st0" cx="62.8" cy="876.6" rx="7.9" ry="1.1"/>
<path class="st6" d="M45.6,864.1c0,0,15.5-50.9-2.4-71.2c-13.4-15.2-28.7-13.4-35.5-11.5c-3.6,1-6.5,3.4-8.1,6.8
	c-2.4,5.1-2,13.5,14.9,23.2c28.2,16.3,29.9,38.7,29.9,38.7L45.6,864.1z"/>
<path class="st7" d="M10.1,788.5c0,0,45.7,14.3,35.5,75.5"/>
<path class="st7" d="M49.5,824.3c0,0-5.1-0.4-5.2,2"/>
<path class="st6" d="M46.2,864.5c0,0-18.2-37-23.2-36.1c-2.4,0.4-3.5,2.7-4,5.1c-0.6,3-0.3,6.2,1,9
	C22.7,848.3,29.6,859.5,46.2,864.5z"/>
<path class="st7" d="M23.2,835.3c0,0,19.1,27.7,22.8,28.9"/>
<path class="st6" d="M45.7,864.5c0,0,18.2-37,23.2-36.1c2.4,0.4,3.5,2.7,4,5.1c0.6,3,0.3,6.2-1,9C69.2,848.3,62.3,859.5,45.7,864.5z
	"/>
<path class="st7" d="M68.7,835.3c0,0-19.1,27.7-22.8,28.9"/>
<line class="st7" x1="70.5" y1="839.7" x2="66" y2="839.7"/>
<line class="st7" x1="65.1" y1="849.8" x2="58.2" y2="850.1"/>
<line class="st7" x1="60.9" y1="841.7" x2="61.7" y2="845.3"/>
<line class="st7" x1="53.5" y1="852.7" x2="53.6" y2="856"/>
<path class="st6" d="M83.7,858.2c-0.5-0.4-0.9-0.9-1-1.6c-0.2-0.6,0.1-1.3,0.7-1.6c0.7-0.3,1.4,0.2,1.9,0.7c0.5,0.5,1.2,1,1.9,0.9
	c-0.7-0.7-1.1-1.7-0.9-2.6c0-0.2,0.1-0.4,0.2-0.5c0.4-0.4,1-0.2,1.5,0.1c1.4,1,1.8,2.9,1.8,4.6c0.1-0.6,0.1-1.3,0-1.9
	c-0.1-0.6,0.2-1.3,0.7-1.7c0.3-0.2,0.7-0.3,1.1-0.3c0.6-0.1,1.3,0.1,1.8,0.5c0.5,0.6,0.4,1.5-0.1,2.2c-0.5,0.6-1.1,1.1-1.8,1.4
	c-0.5,0.3-1,0.7-1.3,1.2c0,0.1-0.1,0.1-0.1,0.2h-4C85.3,859.4,84.5,858.9,83.7,858.2z"/>
<path class="st6" d="M60.7,873.1c-0.5-0.4-0.9-0.9-1-1.6c-0.2-0.6,0.1-1.3,0.7-1.6c0.7-0.3,1.4,0.2,1.9,0.7c0.5,0.5,1.2,1,1.9,0.9
	c-0.7-0.7-1.1-1.7-0.9-2.6c0-0.2,0.1-0.4,0.2-0.5c0.4-0.4,1-0.2,1.5,0.1c1.4,1,1.8,2.9,1.8,4.6c0.1-0.6,0.1-1.3,0-1.9
	c-0.1-0.6,0.2-1.3,0.7-1.7c0.3-0.2,0.7-0.3,1.1-0.3c0.6-0.1,1.3,0.1,1.8,0.5c0.5,0.6,0.4,1.5-0.1,2.2c-0.5,0.6-1.1,1.1-1.8,1.5
	c-0.5,0.3-1,0.7-1.3,1.2c0,0.1-0.1,0.1-0.1,0.2h-4C62.2,874.3,61.4,873.8,60.7,873.1z"/>
<linearGradient id="SVGID_1_" gradientUnits="userSpaceOnUse" x1="1074.5612" y1="240.2421" x2="1074.5612" y2="418.3022" gradientTransform="matrix(-1 0 0 -1 1150.0801 1044.86)">
	<stop  offset="0" style="stop-color:#808080;stop-opacity:0.25"/>
	<stop  offset="0.54" style="stop-color:#808080;stop-opacity:0.12"/>
	<stop  offset="1" style="stop-color:#808080;stop-opacity:0.1"/>
</linearGradient>
<path class="st8" d="M29.5,693.4c-0.1,2,1.6,4.7,1.6,4.7c0.5,1.3,7,7.1,7,7.1l4.8,3.2c-1,0.7-2,1.4-3,1.9c-2.3,1.2-3.6,5.1-3.6,5.1
	s-3.5,8.5,3.6,9.7l0.1,0l0.6,0.7c1.6,1.7,3.5,3.7,4.2,4.2c1.2,0.8,4.9,7,4.9,7s3.9,6.4,9.1,6.7s5.2-5.7,4.8-6
	c-0.2-0.2-0.3-0.5-0.3-0.8c1.2,2,2.9,4.6,3.5,5c0.9,0.6,3.8,5.3,3.8,5.3s3.7,8.4,4.3,9.3c0.6,0.9,1.7,5.4,1.7,5.4s2.1,6.2,3.1,7
	c1,0.8,1.5,3.8,1.5,3.8s3.1,4.5,3.6,5.2c0.6,1.1,1.2,2.2,1.7,3.3c0,0,1.7,2.7,1.7,3.7s3.5,2.8,3.5,2.8s2.5,2.9,3.9,3.4
	c1.4,0.5,2.8,3.9,3,3.7c0.1-0.1,0.3-0.1,0.4-0.1l0.6,0.6c2.3,2.3,6.8,6.8,8,7.8c1.6,1.4,5.2,1.6,8.2,1c1.5-0.3,3.4-1.8,4.9-3.1
	c1.4-1.3,1.4-3.4,0.2-4.7c0,0-0.1-0.1-0.1-0.1c-1.4-1.4-3.1-2.9-3.8-3.1c-1.3-0.4-5.2-3.1-7-5.4c-1-1.2-2.6-2.3-4-3.1l-0.2-0.1
	c-0.2-0.8-0.4-1.7-0.4-2.5c0,0,2.5-5.6,1.1-5.9c-1.4-0.3-6.5-9.2-6.5-9.2c-0.1-6.7-6.2-12.4-6.2-12.4s-3.1-7.3-4-8.9
	c-0.5-0.8-0.5-1.9,0-2.7c0,0-1.7-1.3-2-2s-1.7-5.7-1.7-5.7s-1.7-3.1-1.8-4.5c-0.1-1.4-3.4-5.4-3.4-5.4s-1.4-6.6-2.9-7.8
	c-0.3-0.2-0.2-1.1,0-2.4l0.1-0.1l0.2-0.2l0.1-0.1c0.7-0.7,1.3-1.4,1.9-2.2l0,0c0.1-0.1,0.2-0.2,0.3-0.4c2.2-3,3.5-10,3.5-10
	s0.4-0.2,1-0.5c0.8-0.4,1.5-0.9,2.2-1.5c0,0,0.1-0.1,0.1-0.1c0,0,0,0,0,0c0,0,0-0.1,0-0.1c0,0,0,0,0-0.1c0,0,0-0.1,0-0.1
	c0,0,0,0,0-0.1v-0.2c0-0.1,0-0.1,0-0.2c0,0,0,0,0,0c0-0.1,0-0.1,0-0.2v-0.1c0-0.1,0-0.1,0-0.2c0,0,0,0,0-0.1l-0.1-0.2c0,0,0,0,0,0
	c-0.1-0.2-0.2-0.5-0.3-0.7l0,0l-0.1-0.2l0,0c-0.2-0.4-0.5-0.9-0.7-1.3l0-0.1c0.5-1.5,1.5-4.1,2.5-5c1.3-1.3-0.8-8.5-0.8-8.5
	s-0.4-5.1-1.1-6.5c-0.6-1.5,0-1.7-0.5-3c-0.6-1.4-1-1.3-0.3-4.6c0.3-1.2,0.7-2.6,1.1-3.9l0.5,0.4c2.8,2.6,7.1,6,7.1,6s8.6,7.7,9.3,8
	s3,7.8,3,7.8s-0.5,12.6,6.4,13.1c2.9,0.2,4.2-2,4.6-4.7c0.7-4.2-0.6-8.5-3.4-11.7l-4.1-4.7l-3.7-6.5c-2.3-3.7-4.3-7.6-5.9-11.7
	c-1.7-4-4.1-7.6-7.2-10.7l-0.3-0.3l0.4-0.4c0,0-0.6-4.9-1.1-5.5c-0.4-0.6-2.1-4-2.1-4.8s-1.1-0.9-1.7-1.8c0,0-1.1-2.1-2-2.4
	c-0.2-0.1-0.3-0.2-0.5-0.3c-1.7-1.5-3.9-2.4-6.1-2.7l-0.6-0.1c-1.3-0.1-2.7,0-4,0.1h0c-1-0.3-1.8-1.1-2.6-1.8
	c-1.3-1.1-2.7-2.1-4.2-2.9c-1.6-0.8-3.3-1.4-5.1-1.1c-1.4,0.2-2.6,1-3.9,1.3c-1.9,0.5-4.2,0.4-5.4,2c-0.6,0.7-0.7,1.7-1.3,2.5
	c-0.8,1.1-2.1,1.6-2.9,2.7c-0.5,0.8-0.8,1.7-0.7,2.6c0,0.8,0.1,1.5,0.3,2.2c0.2,0.6,0.3,1.3,0.4,1.9c0,0.1,0,0.2-0.1,0.3
	c-0.1,0.5-0.3,0.9-0.4,1.3c0,0.3-0.1,0.5,0,0.8c-0.1,1.1,0.6,2.2,1.1,3.3c0.4,0.8,0.6,1.7,0.8,2.6c-1.2,0.4-2.5,0.8-3.6,1.4
	c-1.6,0.8-3.1,1.8-4,3.1c-1.5,2.1-3.3,3.8-5.4,5.2c-0.6,1.6-1.2,3.2-1.7,4.9c-0.4,1.9-0.9,5.1-2.2,6.7c-1.3,1.6-2,6.5-2,6.5
	s-1.8,2.9-1.8,3.5s-0.2,3.3,0,4.2c0.1,0.3,0.3,0.5,0.5,0.7l-0.1,0.5C30.4,689,29.6,692.2,29.5,693.4z M71.9,659.9
	c0,0.2-0.1,0.3-0.1,0.5c0-0.2,0-0.3,0-0.5L71.9,659.9z M54.8,723.5l-0.2-0.2l-0.1-0.1c0-0.1,0-0.1,0-0.2L54.8,723.5z M42.3,693.1
	l0.1-0.2l0.4-0.6l2.9-2.3l0.4,0.3c0,0-0.3,3.1-1,3c-0.2,0-0.2,0.7-0.3,1.8C43.3,693.9,42.3,693.1,42.3,693.1L42.3,693.1z"/>
<path class="st9" d="M68.2,635.1c0,0,8.9-0.8,11.1-0.6l0.6,0.1c2.2,0.2,4.3,1.2,6,2.6c0.1,0.1,0.3,0.2,0.5,0.3c1,0.3,2,2.3,2,2.3
	S86,657.8,86,658s-4.7,8.3-4.7,8.3l-4.5,1.8l-7.8,1.1l-0.2-3.4c0,0,3.8-2.1,3.3-6.3C71.6,655.2,68.2,635.1,68.2,635.1z"/>
<path class="st10" d="M72.6,656.4c0,0-1.9,8.6,0,11.4c1.9,2.8-18.9-4.5-18.9-4.5l-3.8-6.9c0,0,1.4-1,3.1-2.3c2.3-1.8,5-4.2,5-5.3
	C58,647,72.6,656.4,72.6,656.4z"/>
<path class="st2" d="M72.6,656.4c0,0-1.9,8.6,0,11.4c1.9,2.8-18.9-4.5-18.9-4.5l-3.8-6.9c0,0,1.4-1,3.1-2.3c2.3-1.8,5-4.2,5-5.3
	C58,647,72.6,656.4,72.6,656.4z"/>
<circle class="st2" cx="68.2" cy="649.4" r="12.7"/>
<circle class="st10" cx="68.2" cy="648.8" r="12.7"/>
<path class="st10" d="M84.7,664.6c0,0.5,1,1.5,2.2,2.6c2.7,2.6,7,5.9,7,5.9s8.4,7.6,9.1,7.8s2.9,7.7,2.9,7.7s-0.5,12.4,6.2,12.9
	c2.9,0.2,4.1-2,4.5-4.6c0.7-4.1-0.6-8.3-3.3-11.5l-4-4.7l-3.6-6.4c-2.3-3.6-4.2-7.5-5.8-11.5c-1.6-3.9-4-7.5-7-10.5
	c-0.8-0.7-1.2-1.1-1.2-1.1l-3.3,1C88.3,652.2,84.6,663.2,84.7,664.6z"/>
<path class="st11" d="M97.5,793.7l1.3,1.3c2.2,2.2,6.7,6.7,7.8,7.7c1.5,1.4,5.1,1.6,8,1c1.5-0.3,3.3-1.7,4.8-3.1
	c1.3-1.2,1.4-3.3,0.2-4.7c0,0-0.1-0.1-0.1-0.1c-1.4-1.4-3-2.9-3.7-3.1c-1.3-0.4-5.1-3.1-6.8-5.3c-0.9-1.1-2.6-2.2-3.9-3
	c-1.3-0.7-2.3-1.2-2.3-1.2L97.5,793.7z"/>
<path class="st2" d="M99.3,793.7c0,0,0.4,0.4,1.1,1.1c1.9,1.9,5.7,5.7,6.6,6.6c1.3,1.2,4.3,1.4,6.8,0.9c1.1-0.2,2.5-1.2,3.6-2.2
	c1.4-1.2,1.5-3.3,0.3-4.7c-0.1-0.1-0.1-0.1-0.2-0.2c-1.1-1-2.2-2.1-2.8-2.2c-1.1-0.4-4.3-2.6-5.8-4.5c-1-1-2.1-1.9-3.3-2.6
	c-1.1-0.6-1.9-1-1.9-1L99.3,793.7z"/>
<path class="st11" d="M39.3,724.1c0,0,1,1.1,2.2,2.5c1.5,1.7,3.4,3.7,4.1,4.1c1.2,0.8,4.8,6.9,4.8,6.9s3.8,6.3,8.9,6.6
	c5,0.3,5.1-5.6,4.7-5.9c-0.4-0.4-0.9-3.7-1.6-6.1c-0.6-1.8-5.1-6.2-7.3-8.2c-0.7-0.6-1.2-1-1.2-1L39.3,724.1z"/>
<path class="st2" d="M40.4,724.9c0,0,0.9,1,2,2.2c1.4,1.5,3.1,3.3,3.7,3.8c1.1,0.7,4.3,6.3,4.3,6.3s3.5,5.7,8.1,6s4.6-5.1,4.3-5.4
	c-0.3-0.3-0.8-3.3-1.5-5.5c-0.5-1.7-4.6-5.6-6.6-7.5c-0.6-0.6-1.1-1-1.1-1L40.4,724.9z"/>
<path class="st2" d="M39.3,724.1c0,0,1,1.1,2.2,2.5c6.4,1,9.4-0.1,9.4-0.1s3-1.3,3.7-1.4c0.2,0,0.3-0.4,0.4-1.1
	c-0.7-0.6-1.2-1-1.2-1L39.3,724.1z"/>
<path class="st12" d="M47.1,706.8c0,0-4,3.3-6.3,4.5c-2.3,1.2-3.5,5-3.5,5s-3.4,8.4,3.5,9.5s10.2,0,10.2,0s3-1.3,3.7-1.4
	s0.7-6.4,3.1-8.3c2.4-1.9,8-6.2,8-6.2L47.1,706.8z"/>
<path class="st2" d="M47.1,706.8c0,0-4,3.3-6.3,4.5c-2.3,1.2-3.5,5-3.5,5s-3.4,8.4,3.5,9.5s10.2,0,10.2,0s3-1.3,3.7-1.4
	s0.7-6.4,3.1-8.3c2.4-1.9,8-6.2,8-6.2L47.1,706.8z"/>
<path class="st12" d="M84.7,696.8c0,0,2.9,3.9,2,4.8c-0.9,0.9-3.1,2-3.1,2s-1.3,7-3.4,9.9c-2.1,2.9-6.3,6.2-6.3,6.2l2.9-16.3
	L84.7,696.8z"/>
<path class="st2" d="M73.9,719.6c1.3-1,2.6-2.1,3.7-3.3c0.9-0.9,1.8-1.8,2.5-2.9c2.1-2.9,3.4-9.9,3.4-9.9s2.2-1,3.1-2
	c0.5-0.6-0.3-2.2-1.1-3.5c-0.5-0.8-0.9-1.4-0.9-1.4l-4.1,3.4l-3.8,3.1l-1.1,6.3L73.9,719.6z"/>
<path class="st2" d="M97.5,793.7l1.3,1.3c0.8,0,2,0.1,2,0.1s5.9-7.1,5-8.4c-0.4-0.7-0.7-1.4-0.9-2.2c-1.3-0.7-2.3-1.2-2.3-1.2
	L97.5,793.7z"/>
<path class="st12" d="M52.3,718.7c0,1.2,10,16.5,10,16.5s3.9,6.6,4.8,7.2c0.9,0.6,3.7,5.2,3.7,5.2s3.6,8.3,4.2,9.2
	c0.6,0.9,1.6,5.3,1.6,5.3s2.1,6.1,3,6.9c1,0.8,1.5,3.7,1.5,3.7s3,4.4,3.5,5.1c0.6,1.1,1.1,2.2,1.6,3.3c0,0,1.6,2.6,1.6,3.7
	c0,1,3.3,2.8,3.3,2.8s2.4,2.9,3.8,3.3c1.4,0.5,2.7,3.9,2.9,3.7s2.7,0,2.7,0s5.9-7.1,5-8.3c-1-1.2-1.2-4.2-1.2-4.2s2.4-5.5,1.1-5.8
	c-1.3-0.3-6.3-9-6.3-9c-0.1-6.6-6.1-12.2-6.1-12.2s-3-7.2-3.9-8.7c-0.5-0.8-0.5-1.8,0-2.6c0,0-1.7-1.3-2-2c-0.3-0.7-1.7-5.6-1.7-5.6
	s-1.7-3-1.8-4.4c-0.1-1.4-3.3-5.3-3.3-5.3s-1.3-6.5-2.8-7.7c-0.3-0.2-0.2-1.1,0-2.3c0.7-3.3,2.8-9.2,4.3-13.1
	c0.8-2.2,1.5-3.8,1.5-3.8l-2.8,0.7l-24.1,6c0,0-1.3,3.5-2.5,6.8C53.1,715.6,52.3,718.1,52.3,718.7z"/>
<path class="st2" d="M99.1,778.6c0,0,7.5-2.9,3.8,0.8S92,783,92,783L99.1,778.6z"/>
<path class="st2" d="M86.2,763.7c0,0-4.2,2.3-3.4,4.6C83.5,770.6,86.2,763.7,86.2,763.7z"/>
<path class="st2" d="M81.9,745.5c-0.8,1.5-2.5,2.4-4.2,2.3C74.7,747.7,81.9,745.5,81.9,745.5z"/>
<path class="st2" d="M-23.9,584c0,0,1.6,5,0,5.3C-25.5,589.7-23.9,584-23.9,584z"/>
<path class="st2" d="M84.7,664.6c0,0.5,1,1.5,2.2,2.6c0.7-2.2,1.3-4.3,1-5c-0.6-1,1.7-3.2,1.3-4.7c-0.3-1.1,2.4-4,3.8-5.2
	c-0.8-0.7-1.2-1.1-1.2-1.1l-3.3,1C88.3,652.2,84.6,663.2,84.7,664.6z"/>
<path class="st2" d="M54,713c2.8-0.2,9.3-2.2,9.3-2.2s7.5-0.2,12.4-1.3c2.4-0.5,4.1-1.2,4.1-2.1c0-1.2,1-2.8,2.1-4.3
	c0.8-1,1.6-1.9,2.5-2.8c0.5-0.5,0.8-1,1-1.7c0.1-0.2,0.1-0.4,0.2-0.6c-0.5-0.8-0.9-1.4-0.9-1.4l-4.1,3.4l-24.1,6
	C56.5,706.2,55.1,709.7,54,713z"/>
<path class="st9" d="M46,708.3c0,0,5.4,3.2,7,3.8c1.6,0.6,10.3-2.1,10.3-2.1s16.6-0.5,16.6-3.3c0-2.1,3.1-5.6,4.6-7.1
	c0.5-0.5,0.8-1,1-1.7c0.5-1.4,1.5-4.1,2.5-5c1.3-1.3-0.7-8.3-0.7-8.3s-0.4-5-1-6.4s0-1.7-0.5-2.9c-0.6-1.4-1-1.3-0.2-4.5
	c0.7-3.2,2.5-7.3,1.9-8.4c-0.6-1,1.7-3.2,1.3-4.7c-0.4-1.5,4.4-5.9,4.4-5.9s-0.6-4.8-1-5.4s-2-4-2-4.7s-1-0.9-1.6-1.8
	c-0.6-0.9-7.3,22.7-7.3,22.7l-9.9,2.2l-0.5,0.1c0,0-5.6,0.3-9.2-1.8c0,0-6.3-1-8.3-11.4c-1.6,0.4-3.1,0.9-4.6,1.6
	c-1.5,0.7-3.1,1.8-3.9,3c-1.4,2-3.2,3.8-5.3,5.1c-0.6,1.6-1.2,3.2-1.6,4.8c-0.4,1.9-0.9,5-2.2,6.6c-1.3,1.6-1.9,6.4-1.9,6.4l13.2,12
	c0,0-0.3,3.1-1,2.9C44.9,694.2,46,708.3,46,708.3z"/>
<path class="st2" d="M48.4,654l7,14.7c0,0,2.9,1.9,4,0.9c1-1,4.9-1,4.9-1l0.5,1l7.4-1.8l-1.2-2.4l-0.5,0.1c0,0-5.6,0.3-9.2-1.8
	c0,0-6.3-1-8.3-11.4C51.4,652.7,49.9,653.3,48.4,654z"/>
<path class="st9" d="M48.4,653.4l7,14.7c0,0,2.9,1.9,4,0.9s4.9-1,4.9-1l0.5,1l7.4-1.8l-1.2-2.4l-0.5,0.1c0,0-5.6,0.3-9.2-1.8
	c0,0-6.3-1-8.3-11.4C51.4,652.1,49.9,652.7,48.4,653.4z"/>
<path class="st2" d="M51.5,696.1c0,0,15.5,4.9,16.7,5.5C69.4,702.2,51.6,697.8,51.5,696.1z"/>
<path class="st2" d="M61.3,703.6c0,0-4.1,2.3-5.6,1.5C54.3,704.2,61.3,703.6,61.3,703.6z"/>
<path class="st2" d="M74.2,676.4c0,0,3.9,21-1.9,27.2L74.2,676.4z"/>
<path class="st2" d="M80.6,644.8c1.5-1.6,1.6-4.1,0.2-5.8c-0.5-0.6-1.2-1-1.6-1.7c-0.2-0.5-0.5-0.9-0.8-1.3c-0.8-0.8-2-0.6-3.1-0.9
	s-1.7-1.1-2.5-1.8c-1.2-1.1-2.6-2.1-4.1-2.9c-1.5-0.8-3.2-1.4-4.9-1.1c-1.3,0.2-2.5,1-3.8,1.3c-1.8,0.5-4.1,0.4-5.3,1.9
	c-0.6,0.7-0.7,1.7-1.2,2.4c-0.7,1.1-2.1,1.6-2.9,2.6c-0.9,1.2-0.8,2.8-0.4,4.2c0.2,0.9,0.6,1.9,0.4,2.8c-0.1,0.4-0.3,0.9-0.4,1.3
	c-0.2,1.2,0.5,2.3,1,3.4c0.6,1.2,0.8,2.5,0.8,3.8c0,0.3,0,0.6,0.1,0.9c0.1,0.2,0.3,0.4,0.6,0.5l2.2,1.4c0.1,0.1,0.2,0.1,0.3,0.2
	c0.4,0.1,0.7-0.4,1-0.8c0.7-0.9,2.1-0.8,3.2-0.3c1,0.5,1.9,1.3,2.9,1.8c2.4,1.1,5.3,0.1,7.9-0.4c0.9-0.1,1.8-0.3,2.7-0.6
	c0.8-0.3,1.6-0.8,2.3-1.3c0.7-0.4,1.4-1,2-1.6c0.6-0.7,0.9-1.7,0.7-2.6c-0.2-0.8-0.9-1.5-0.8-2.3C77.4,646.6,79.7,645.8,80.6,644.8z
	"/>
<path class="st9" d="M80.6,644.2c1.5-1.6,1.6-4.1,0.2-5.8c-0.5-0.6-1.2-1-1.6-1.7c-0.2-0.5-0.5-0.9-0.8-1.3c-0.8-0.8-2-0.6-3.1-0.9
	s-1.7-1.1-2.5-1.8c-1.2-1.1-2.6-2.1-4.1-2.9c-1.5-0.8-3.2-1.4-4.9-1.1c-1.3,0.2-2.5,1-3.8,1.3c-1.8,0.5-4.1,0.4-5.3,1.9
	c-0.6,0.7-0.7,1.7-1.2,2.4c-0.7,1.1-2.1,1.6-2.9,2.6c-0.9,1.2-0.8,2.8-0.4,4.2c0.2,0.9,0.6,1.9,0.4,2.8c-0.1,0.4-0.3,0.9-0.4,1.3
	c-0.2,1.2,0.5,2.3,1,3.4c0.6,1.2,0.8,2.5,0.8,3.9c0,0.3,0,0.6,0.1,0.9c0.1,0.2,0.3,0.4,0.6,0.5l2.2,1.4c0.1,0.1,0.2,0.1,0.3,0.2
	c0.4,0.1,0.7-0.4,1-0.8c0.7-0.9,2.1-0.8,3.2-0.3c1,0.5,1.9,1.3,2.9,1.8c2.4,1.1,5.3,0.1,7.9-0.4c0.9-0.1,1.8-0.3,2.7-0.6
	c0.8-0.3,1.6-0.8,2.3-1.3c0.7-0.4,1.4-1,2-1.6c0.6-0.7,0.9-1.7,0.7-2.6c-0.2-0.8-0.9-1.5-0.8-2.3C77.4,646,79.7,645.2,80.6,644.2z"
	/>
<path class="st10" d="M30.7,694.6c-0.1,2,1.6,4.6,1.6,4.6c0.5,1.2,6.8,7,6.8,7l5,3.3c0,0,6.7,4.1,8.2,4.8c0.8,0.4,1.6,1.9,2.3,3.4
	s1.1,2.9,1.1,2.9c3-0.4,5.3-2.8,5.6-5.8c0.2-1.9,0.3-3.6,0.1-3.6c-0.4-0.1-4.5-3.1-4.5-3.1s-4.8-3.1-6.3-6.1
	c-1.5-3.1-7.5-7.8-7.5-7.8l0.1-0.2l0.3-0.6l0.7-2.4l-11.5-5.1c0,0-0.3,0.9-0.6,2.2C31.5,690.2,30.7,693.3,30.7,694.6z"/>
<path class="st2" d="M32.1,688.1c2.2,2.1,4.5,4.1,6.9,5.9c0.7,0.4,3.2,0.2,4.1,0l0.3-0.6l0.7-2.4l-11.5-5.1
	C32.8,685.9,32.5,686.8,32.1,688.1z"/>
<path class="st9" d="M43.5,679.2c0,0,5.9,3.5,5.6,5.1c-0.3,1.5-2.8,6.8-2.8,6.8l-2.8,2.3c0,0-3.6,0.5-4.5,0
	c-0.9-0.5-7.1-5.6-7.3-6.4s0-3.5,0-4.1c0-0.6,1.8-3.4,1.8-3.4l2.6-4.5L43.5,679.2z"/>
<polygon class="st2" points="63.2,710.8 65,715.5 62.1,718.2 61.9,719.1 55.5,722.8 53.4,717.6 "/>
<polygon class="st12" points="63.2,710.6 65,715.2 62.1,717.9 61.9,718.8 55.5,722.5 53.4,717.3 "/>
<g class="st4">
	<path d="M77.3,647.2c-0.1-0.3-0.1-0.5-0.1-0.8c0.2-1.5,2.5-2.4,3.4-3.3c0.6-0.7,1-1.5,1.1-2.4c0.2,1.3-0.2,2.6-1.1,3.6
		C79.7,645.1,77.8,645.9,77.3,647.2z"/>
	<path d="M50.2,645.3c0.3,0.8,0.6,1.6,1,2.3c0.6,1.2,0.8,2.5,0.8,3.8c0,0.3,0,0.6,0.1,0.9c0.1,0.2,0.3,0.4,0.6,0.5l2.2,1.4
		c0.1,0.1,0.2,0.1,0.3,0.2c0.4,0.1,0.7-0.4,1-0.8c0.7-0.9,2.1-0.8,3.2-0.3c1,0.5,1.9,1.3,2.9,1.8c2.5,1.1,5.3,0.1,7.9-0.4
		c0.9-0.1,1.8-0.3,2.7-0.6c0.8-0.3,1.6-0.8,2.3-1.3c0.7-0.4,1.4-1,2-1.6c0.3-0.4,0.6-0.8,0.7-1.3c0.2,0.9-0.1,1.8-0.7,2.5
		c-0.6,0.6-1.3,1.2-2,1.6c-0.7,0.5-1.5,0.9-2.3,1.3c-0.9,0.3-1.8,0.5-2.7,0.6c-2.6,0.5-5.5,1.5-7.9,0.4c-1-0.5-1.9-1.3-2.9-1.8
		s-2.4-0.6-3.2,0.3c-0.3,0.3-0.5,0.8-1,0.8c-0.1,0-0.2-0.1-0.3-0.2l-2.2-1.4c-0.2-0.1-0.4-0.3-0.6-0.5c-0.1-0.3-0.2-0.6-0.1-0.9
		c0-1.3-0.2-2.6-0.8-3.8c-0.5-1.1-1.3-2.2-1-3.4C50.2,645.4,50.2,645.4,50.2,645.3z"/>
	<path d="M50.3,640.2c0.2,0.9,0.6,1.8,0.4,2.7c-0.1-0.5-0.2-1-0.4-1.5c-0.2-0.8-0.3-1.6-0.2-2.5C50.1,639.3,50.2,639.7,50.3,640.2z"
		/>
</g>
<circle class="st0" cx="-160.6" cy="446.3" r="10.4"/>
<circle class="st0" cx="238.3" cy="553.7" r="10.4"/>
<circle class="st0" cx="402.5" cy="594.6" r="10.4"/>
<circle class="st0" cx="-140" cy="503.4" r="17.3"/>
<circle class="st0" cx="189.9" cy="911.4" r="17.3"/>
<circle class="st0" cx="421" cy="901.4" r="17.3"/>
<ellipse class="st13" cx="1692.3" cy="827" rx="175" ry="29.4"/>
<g class="st14">
	<path class="st6" d="M1650.2,521.1c0,0.3,0,0.7,0.1,1C1650.2,521.7,1650.2,521.4,1650.2,521.1z"/>
	<path class="st6" d="M1738.4,499.9c0,0.1,0,0.2,0,0.3C1738.4,500.1,1738.4,500,1738.4,499.9z"/>
	<path class="st6" d="M1738.2,499.1c0,0.1,0,0.2,0.1,0.3C1738.2,499.3,1738.2,499.2,1738.2,499.1z"/>
	<path class="st6" d="M1738.3,522.7c0,0.2-0.1,0.3-0.1,0.4C1738.2,523,1738.2,522.9,1738.3,522.7z"/>
	<path class="st6" d="M1738.4,522c0,0.2,0,0.3-0.1,0.5C1738.3,522.3,1738.4,522.2,1738.4,522z"/>
	<path class="st6" d="M1654.3,527.8c-0.6-0.3-1.1-0.7-1.6-1.1C1653.2,527.1,1653.7,527.5,1654.3,527.8z"/>
	<path class="st6" d="M1652.6,526.6c-0.2-0.2-0.4-0.4-0.6-0.7C1652.2,526.1,1652.4,526.4,1652.6,526.6z"/>
	<path class="st6" d="M1782.7,671.1c-0.1-0.3-0.2-0.6-0.3-0.9C1782.5,670.5,1782.6,670.8,1782.7,671.1z"/>
	<path class="st6" d="M1778.9,666.6c0.3,0.2,0.6,0.3,0.9,0.5C1779.5,666.9,1779.2,666.7,1778.9,666.6z"/>
	<path class="st6" d="M1780.6,667.8c0.5,0.4,0.9,0.9,1.2,1.5C1781.5,668.7,1781.1,668.2,1780.6,667.8z"/>
	<path class="st6" d="M1779.8,667.1c0.3,0.2,0.5,0.4,0.7,0.6C1780.3,667.5,1780,667.3,1779.8,667.1z"/>
	<path class="st6" d="M1782.3,670.1c-0.1-0.2-0.2-0.5-0.4-0.7C1782.1,669.6,1782.2,669.9,1782.3,670.1z"/>
	<path class="st6" d="M1782.9,672.1c0-0.3-0.1-0.5-0.2-0.7C1782.8,671.6,1782.9,671.8,1782.9,672.1z"/>
	<path class="st6" d="M2011,630.6h-43.5c2-1.4,3.3-3.7,3.3-6.2v-20c0-4.2-3.4-7.6-7.6-7.6l0,0h-50.1c3.1-1,5.3-3.9,5.3-7.2v-20
		c0-2.5-1.2-4.8-3.3-6.2h48.1c4.2,0,7.6-3.4,7.6-7.6c0,0,0,0,0,0v-20c0-4.2-3.4-7.6-7.6-7.6l0,0h-53.5c3.1-1,5.3-3.9,5.3-7.2v-20
		c0-2.5-1.2-4.8-3.3-6.2h51.5c4.2,0,7.6-3.4,7.6-7.6c0,0,0,0,0,0v-20c0-4.2-3.4-7.6-7.6-7.6c0,0,0,0,0,0h-27c3.1-1,5.3-3.9,5.3-7.2
		v-20c0-4.2-3.4-7.6-7.6-7.6l0,0h-73.1c-4.2,0-7.6,3.4-7.6,7.6v0c0-4.2-3.4-7.6-7.6-7.6l0,0h-73.1c-2.9,0-5.6,1.7-6.8,4.4
		c0.1,0.5,0.1,1,0.1,1.5v20c0,1.1-0.2,2.2-0.7,3.2c0.3,1.7,1.3,3.3,2.6,4.4h18.8c1.7,0,3.4,0.6,4.8,1.7h8.2c-3.1,1-5.3,3.9-5.3,7.2
		c0-0.5-0.1-1-0.2-1.5c0,0,0,0.1,0,0.1v20c0,0.6-0.1,1.3-0.2,1.9c0.1,0.1,0.2,0.3,0.3,0.4c0-0.3,0.1-0.6,0.1-1c0,0.4,0,0.9,0.1,1.3
		c0.1,0.2,0.2,0.5,0.2,0.8c0.5,1.7,1.5,3.2,3,4.2h-6.5l0.2-0.1c-0.6,0-1.2,0-1.8-0.1c-0.2,0-0.4,0-0.6-0.1c-0.7,0.2-1.4,0.3-2.2,0.3
		l-44.9,1.4c-2,1.4-3.3,3.7-3.3,6.2v20c0,3.3,2.1,6.2,5.3,7.2l42.8,0.4c0.8,0,1.5,0.1,2.2,0.3c0.5,0,1,0.1,1.4,0.2h0.1
		c-0.4-0.2-0.9-0.4-1.3-0.6h10.5c-3.1,1-5.3,3.9-5.3,7.2c0-0.4,0-0.9-0.1-1.3c0,0.1-0.1,0.1-0.2,0.2c0.1,0.5,0.1,1,0.1,1.5v20
		c0,0.9,0.1,0.7,0.1-0.4c0,2.5,1.2,4.8,3.3,6.2l26.7,0.9c0.9,0,1.8,0.2,2.7,0.5h6.4c-1.2,0.8-2.1,1.9-2.6,3.2
		c0.7,1.2,1.1,2.5,1.1,3.9v20c0,1-0.2,2.1-0.6,3c0.9,1.6,2.4,2.8,4.2,3.3h-7c-1.2,0.8-2.6,1.2-4.1,1.2h-26.5
		c-2.2,1.4-3.5,3.8-3.5,6.4c0-2.7-1,23.6-1,23.6c0,2.4,41.3,3.4,41.3,3.4c1,0,2.1,0.2,3,0.6c0.4-0.1,0.9-0.1,1.3-0.1h0h6.5
		c-2,1.4-3.3,3.7-3.3,6.2c0-0.4,0-0.7-0.1-1.1c0,0.1-0.1,0.2-0.1,0.2c0.1,0.6,0.2,1.1,0.2,1.7v19.1c0,4.2,3.4,7.6,7.6,7.6l0,0h-11.6
		c-1.1,0.6-2.3,0.9-3.5,0.9h-47.5c-2.5,1.3-4.1,3.9-4.1,6.7v20c0,4.2,3.4,7.6,7.6,7.6l0,0h73.1c4.2,0,7.6-3.4,7.6-7.6l0,0
		c0,4.2,3.4,7.6,7.6,7.6l0,0h73.1c4.2,0,7.6-3.4,7.6-7.6l0,0v-20c0-4.2-3.4-7.6-7.6-7.6l0,0h59.1c4.2,0,7.6-3.4,7.6-7.6v-20
		C2018.6,634,2015.2,630.6,2011,630.6C2011,630.6,2011,630.6,2011,630.6z M1830,494.9c-2,1.4-3.3,3.7-3.3,6.2c0-2.5-1.2-4.8-3.3-6.2
		H1830z M1821.4,528.3c3.1-1,5.3-3.9,5.3-7.2c0,3.3,2.1,6.2,5.3,7.2H1821.4z M1848,459.7c3.1-1,5.3-3.9,5.3-7.2
		c0,3.3,2.1,6.2,5.3,7.2H1848z M1871.2,673.3c0-4.2-3.4-7.6-7.6-7.6l0,0h15.1C1874.6,665.7,1871.2,669.1,1871.2,673.3
		C1871.2,673.3,1871.2,673.3,1871.2,673.3L1871.2,673.3z M1879.2,630.6c2-1.4,3.3-3.7,3.3-6.2c0,2.5,1.2,4.8,3.3,6.2H1879.2z
		 M1882.5,604.4c0-3.3-2.1-6.2-5.3-7.2h10.6C1884.7,598.2,1882.5,601.1,1882.5,604.4L1882.5,604.4z M1879.2,562
		c2-1.4,3.3-3.7,3.3-6.2c0,2.5,1.2,4.8,3.3,6.2H1879.2z M1882.5,535.8c0-3.3-2.1-6.2-5.3-7.2h10.6
		C1884.7,529.6,1882.5,532.5,1882.5,535.8L1882.5,535.8z M1879.2,493.5c2-1.4,3.3-3.7,3.3-6.2c0,2.5,1.2,4.8,3.3,6.2H1879.2z
		 M1882.5,467.3c0-3.3-2.1-6.2-5.3-7.2h10.6C1884.7,461.1,1882.5,464,1882.5,467.3L1882.5,467.3z M1933.6,631.9
		c-2,1.4-3.3,3.7-3.3,6.2c0-2.5-1.2-4.8-3.3-6.2H1933.6z M1922.8,665.7c4.2,0,7.6-3.4,7.6-7.6l0,0c0,4.2,3.4,7.6,7.6,7.6l0,0H1922.8
		z"/>
	<path class="st6" d="M1794.3,624.4"/>
	<path class="st6" d="M1783,673.3c0-0.3,0-0.6-0.1-1C1783,672.6,1783,673,1783,673.3z"/>
	<path class="st6" d="M1738.5,521.1c0,0.2,0,0.5,0,0.7C1738.4,521.5,1738.5,521.3,1738.5,521.1z"/>
	<path class="st6" d="M1650.3,522.2c0,0.3,0.1,0.6,0.2,0.9C1650.4,522.8,1650.3,522.5,1650.3,522.2z"/>
	<path class="st6" d="M1565.6,566.8c-0.1-0.1-0.2-0.2-0.3-0.4c-0.1-0.2-0.2-0.4-0.2-0.6c0,0.5,0,1,0,1.6c0.2,0.7,0.3,1.5,0.3,2.2
		c0-0.7,0.1-1.5,0.3-2.2C1565.6,567.3,1565.6,567.1,1565.6,566.8C1565.6,566.9,1565.6,566.9,1565.6,566.8z"/>
	<path class="st6" d="M1669.2,425h-73.1c-4.2,0-7.6,3.4-7.6,7.6l0,0c0-4.2-3.4-7.6-7.6-7.6c0,0,0,0,0,0h-73.1
		c-4.2,0-7.6,3.4-7.6,7.6l0,0v20c0,3.3,2.1,6.2,5.3,7.2h-56.7c-4.2,0-7.6,3.4-7.6,7.6c0,0,0,0,0,0v20c0,2.5,1.2,4.8,3.3,6.2h-51.5
		c-4.2,0-7.6,3.4-7.6,7.6c0,0,0,0,0,0v20c0,4.2,3.4,7.6,7.6,7.6l0,0h53.5c-3.1,1-5.3,3.9-5.3,7.2v20c0,2.5,1.2,4.8,3.3,6.2h-48.1
		c-4.2,0-7.6,3.4-7.6,7.6c0,0,0,0,0,0v20c0,4.2,3.4,7.6,7.6,7.6h0h50.1c-3.1,1-5.3,3.9-5.3,7.2v20c0,4.2,3.4,7.6,7.6,7.6h0h43.5
		c-2,1.4-3.3,3.7-3.3,6.2v20c0,4.2,3.4,7.6,7.5,7.6h-59.1c-4.2,0-7.6,3.4-7.6,7.6l0,0v20c0,4.2,3.4,7.6,7.6,7.6l0,0h73.1
		c4.2,0,7.6-3.4,7.6-7.6l0,0c0,4.2,3.4,7.6,7.6,7.6c0,0,0,0,0,0h73.1c4.2,0,7.6-3.4,7.6-7.6l0,0v-20c0-2.8-1.6-5.4-4.1-6.7h-15.7
		c-1.2,0-2.4-0.3-3.5-0.9h-13.4c4.2,0,7.6-3.4,7.6-7.6c0,0,0,0,0,0c0,3.3,1.7-19.1,1.7-19.1c0-4.2,3.4-7.6,7.6-7.6c0,0,0,0,0,0
		l27.9-0.9c0.8-0.6,1.5-1.2,2-2.1c-0.4-0.9-0.6-1.9-0.6-2.9v-20c0-1.5,0.4-2.9,1.3-4.2c-0.6-1.4-1.6-2.6-2.9-3.4h-39.7
		c-1.5,0-2.9-0.4-4.1-1.2h-10.4c3.1-1,5.3-3.9,5.3-7.2l-0.3-19.8c0-0.9,0-1.7-0.1-2.4c-0.5-1.6-1.5-3-2.9-4h6.5l-0.1,0.1
		c3.7-0.2,45.9-2.7,49.3-5.5c-0.1-0.5-0.1-1.1,0-1.6c-0.1-0.4-0.1-0.8-0.1-1.1v-19.9c0-0.2,0-0.5,0-0.7c-0.5-2.8-2.5-5.1-5.2-6h9.2
		c1.1-0.6,2.3-0.9,3.5-0.9h20.9c2.5-1.3,4.1-3.9,4.1-6.7v-20c0-2.5-1.2-4.8-3.3-6.2l-21.7-1.4c-3.7,0-6.1-1.4-4.2,0h-6.5
		c2-1.4,3.2-3.7,3.3-6.2c-0.1-0.5-0.1-0.9-0.1-1.4v-20c0,0,0,0,0,0c-0.5-2.7-2.5-5-5.1-5.8h7.9c1.3-1.1,3-1.7,4.8-1.7h48.8
		c1.8-1.4,2.8-3.6,2.8-5.9v-20C1676.8,428.4,1673.4,425,1669.2,425C1669.2,425,1669.2,425,1669.2,425z M1477,494.9
		c-2,1.4-3.3,3.7-3.3,6.2c0-2.5-1.2-4.8-3.3-6.2H1477z M1473.7,521.1c0,3.3,2.1,6.2,5.3,7.2h-10.5
		C1471.6,527.3,1473.7,524.4,1473.7,521.1L1473.7,521.1z M1480.4,563.4c-2,1.4-3.3,3.7-3.3,6.2c0-2.5-1.2-4.8-3.3-6.2H1480.4z
		 M1471.9,596.8c3.1-1,5.3-3.9,5.3-7.2c0,3.3,2.1,6.2,5.3,7.2H1471.9z M1565.2,494.9c-2,1.4-3.3,3.7-3.3,6.2c0-2.5-1.2-4.8-3.3-6.2
		H1565.2z M1518.3,673.3c0-4.2-3.4-7.6-7.6-7.6c0,0,0,0,0,0h15.1C1521.7,665.7,1518.3,669.1,1518.3,673.3
		C1518.3,673.3,1518.3,673.3,1518.3,673.3z M1526.3,630.6c2-1.4,3.3-3.7,3.3-6.2c0,2.5,1.2,4.8,3.3,6.2H1526.3z M1529.5,604.4
		c0-3.3-2.1-6.2-5.2-7.2h10.5C1531.7,598.2,1529.5,601.1,1529.5,604.4z M1526.3,562.1c2-1.4,3.3-3.7,3.3-6.2c0,2.5,1.2,4.8,3.3,6.2
		H1526.3z M1529.5,535.9c0-3.3-2.1-6.2-5.3-7.2h10.5C1531.7,529.6,1529.5,532.6,1529.5,535.9z M1526.3,493.5c2-1.4,3.3-3.7,3.3-6.2
		c0,2.5,1.2,4.8,3.3,6.2H1526.3z M1529.5,467.3c0-3.3-2.1-6.2-5.3-7.2h10.5C1531.7,461.1,1529.5,464,1529.5,467.3z M1556.7,528.3
		c3.1-1,5.3-3.9,5.3-7.2c0,3.3,2.1,6.2,5.3,7.2H1556.7z M1583.3,459.7c3.1-1,5.3-3.9,5.3-7.2c0,3.3,2.1,6.2,5.3,7.2H1583.3z"/>
	<path class="st6" d="M1652.7,495.5l0.1-0.1L1652.7,495.5z"/>
	<path class="st6" d="M1652.2,496l-0.1,0.1L1652.2,496z"/>
	<path class="st6" d="M1651.6,496.8L1651.6,496.8L1651.6,496.8z"/>
	<path class="st6" d="M1650.6,523.3c0.1,0.3,0.2,0.6,0.3,0.9C1650.7,523.8,1650.6,523.5,1650.6,523.3z"/>
	<path class="st6" d="M1651.3,525c0.2,0.3,0.4,0.5,0.6,0.8C1651.7,525.6,1651.5,525.3,1651.3,525z"/>
	<path class="st6" d="M1650.9,524.2c0.1,0.3,0.3,0.6,0.5,0.8C1651.2,524.8,1651,524.5,1650.9,524.2z"/>
	<path class="st6" d="M1650.4,499.4c0-0.1,0-0.2,0.1-0.3C1650.5,499.2,1650.4,499.3,1650.4,499.4z"/>
	<path class="st6" d="M1650.7,498.5c0-0.1,0.1-0.2,0.1-0.2C1650.7,498.3,1650.7,498.4,1650.7,498.5z"/>
	<path class="st6" d="M1650.3,500.2c0-0.1,0-0.2,0-0.3C1650.3,500,1650.3,500.1,1650.3,500.2z"/>
	<path class="st6" d="M1651.1,497.5L1651.1,497.5z"/>
	<path class="st2" d="M1583.3,460.1h-76.1c-3.3,0-6-2.7-6-6v-23c0-3.3,2.7-6,6-6h76.1c3.3,0,6,2.7,6,6v23
		C1589.4,457.4,1586.7,460.1,1583.3,460.1z"/>
	<path class="st2" d="M1847.2,460.1h-76.1c-3.3,0-6-2.7-6-6v-23c0-3.3,2.7-6,6-6h76.1c3.3,0,6,2.7,6,6v23
		C1853.3,457.4,1850.5,460.1,1847.2,460.1z"/>
	<path class="st2" d="M1964.6,494.4h-76.1c-3.3,0-6-2.7-6-6v-23c0-3.3,2.7-6,6-6h76.1c3.3,0,6,2.7,6,6v23
		C1970.6,491.7,1967.9,494.4,1964.6,494.4z"/>
	<path class="st2" d="M1820.6,528.6h-76.1c-3.3,0-6-2.7-6-6v-23c0-3.3,2.7-6,6-6h76.1c3.3,0,6,2.7,6,6v23
		C1826.7,525.9,1824,528.6,1820.6,528.6z"/>
	<path class="st2" d="M1964.6,563.8h-76.1c-3.3,0-6-2.7-6-6v-23c0-3.3,2.7-6,6-6h76.1c3.3,0,6,2.7,6,6v23
		C1970.6,561.1,1967.9,563.8,1964.6,563.8z"/>
	<path class="st2" d="M1964.6,632.3h-76.1c-3.3,0-6-2.7-6-6v-23c0-3.3,2.7-6,6-6h76.1c3.3,0,6,2.7,6,6v23
		C1970.6,629.6,1967.9,632.3,1964.6,632.3z"/>
	<path class="st2" d="M1924.8,631.4h-77.2c-2.4,0-4.6,1.6-5.3,4c0,0.3,0,0.6-0.1,0.9c0,0.2-0.1,0.4-0.2,0.5c0,0,0,0.1,0,0.1v24.1
		c0,3,2.5,5.5,5.5,5.5h77.2c3,0,5.5-2.5,5.5-5.5V637C1930.4,633.9,1927.9,631.4,1924.8,631.4z"/>
	<path class="st2" d="M1865.2,700.8H1789c-3.3,0-6-2.7-6-6v-23c0-3.3,2.7-6,6-6h76.1c3.3,0,6,2.7,6,6v23
		C1871.2,698.1,1868.5,700.8,1865.2,700.8z"/>
	<path class="st2" d="M1611.6,494.4h-76.1c-3.3,0-6-2.7-6-6v-23c0-3.3,2.7-6,6-6h76.1c3.3,0,6,2.7,6,6v23
		C1617.7,491.7,1614.9,494.4,1611.6,494.4z"/>
	<path class="st2" d="M1556.8,528.6h-76.1c-3.3,0-6-2.7-6-6v-23c0-3.3,2.7-6,6-6h76.1c3.3,0,6,2.7,6,6v23
		C1562.8,525.9,1560.1,528.6,1556.8,528.6z"/>
	<path class="st2" d="M1523.4,563.8h-76.1c-3.3,0-6-2.7-6-6v-23c0-3.3,2.7-6,6-6h76.1c3.3,0,6,2.7,6,6v23
		C1529.4,561.1,1526.7,563.8,1523.4,563.8z"/>
	<path class="st2" d="M1559.4,598h-76.1c-3.3,0-6-2.7-6-6v-23c0-3.3,2.7-6,6-6h76.1c3.3,0,6,2.7,6,6v23
		C1565.4,595.3,1562.7,598,1559.4,598z"/>
	<path class="st2" d="M1523.4,632.3h-76.1c-3.3,0-6-2.7-6-6v-23c0-3.3,2.7-6,6-6h76.1c3.3,0,6,2.7,6,6v23
		C1529.4,629.6,1526.7,632.3,1523.4,632.3z"/>
	<path class="st6" d="M1483.5,666.6h-76.1c-3.3,0-6-2.7-6-6v-23c0-3.3,2.7-6,6-6h76.1c3.3,0,6,2.7,6,6v23
		C1489.5,663.9,1486.8,666.6,1483.5,666.6z"/>
	<path class="st6" d="M1998.7,598h-76.1c-3.3,0-6-2.7-6-6v-23c0-3.3,2.7-6,6-6h76.1c3.3,0,6,2.7,6,6v23
		C2004.7,595.3,2002,598,1998.7,598z"/>
	<path class="st6" d="M1994.9,528.8h-76.1c-3.3,0-6-2.7-6-6v-23c0-3.3,2.7-6,6-6h76.1c3.3,0,6,2.7,6,6v23
		C2001,526.1,1998.3,528.8,1994.9,528.8z"/>
	<path class="st6" d="M2039.2,700.3h-76.1c-3.3,0-6-2.7-6-6v-23c0-3.3,2.7-6,6-6h76.1c3.3,0,6,2.7,6,6v23
		C2045.3,697.6,2042.5,700.3,2039.2,700.3z"/>
	<path class="st6" d="M1424.2,700.9h-76.1c-3.3,0-6-2.7-6-6v-23c0-3.3,2.7-6,6-6h76.1c3.3,0,6,2.7,6,6v23
		C1430.2,698.2,1427.5,700.9,1424.2,700.9z"/>
	<path class="st6" d="M1436,631.7h-76.1c-3.3,0-6-2.7-6-6v-23c0-3.3,2.7-6,6-6h76.1c3.3,0,6,2.7,6,6v23
		C1442.1,629,1439.4,631.7,1436,631.7z"/>
	<path class="st6" d="M1436,563.7h-76.1c-3.3,0-6-2.7-6-6v-23c0-3.3,2.7-6,6-6h76.1c3.3,0,6,2.7,6,6v23
		C1442.1,561,1439.4,563.7,1436,563.7z"/>
	<path class="st6" d="M1439.2,494.5H1363c-3.3,0-6-2.7-6-6v-23c0-3.3,2.7-6,6-6h76.1c3.3,0,6,2.7,6,6v23
		C1445.2,491.7,1442.5,494.5,1439.2,494.5z"/>
	<path class="st2" d="M1439.2,494.5H1363c-3.3,0-6-2.7-6-6v-23c0-3.3,2.7-6,6-6h76.1c3.3,0,6,2.7,6,6v23
		C1445.2,491.7,1442.5,494.5,1439.2,494.5z"/>
	<path class="st6" d="M1495.3,460.1h-76.1c-3.3,0-6-2.7-6-6v-23c0-3.3,2.7-6,6-6h76.1c3.3,0,6,2.7,6,6v23
		C1501.3,457.4,1498.6,460.1,1495.3,460.1z"/>
	<path class="st2" d="M1572.2,666.6h-76.1c-3.3,0-6-2.7-6-6v-23c0-3.3,2.7-6,6-6h76.1c3.3,0,6,2.7,6,6v23
		C1578.3,663.9,1575.5,666.6,1572.2,666.6z"/>
	<path class="st2" d="M1512.2,700.8h-76.1c-3.3,0-6-2.7-6-6v-23c0-3.3,2.7-6,6-6h76.1c3.3,0,6,2.7,6,6v23
		C1518.3,698.1,1515.6,700.8,1512.2,700.8z"/>
</g>
<circle class="st15" cx="1896.1" cy="363.8" r="19.8"/>
<path class="st13" d="M1514.3,399.6h-4.7c1.8-0.1,3.2-1.6,3.1-3.4c-0.1-1.7-1.4-3.1-3.1-3.1h-38.1c-1.8-0.1-3.4,1.3-3.4,3.1
	c-0.1,1.8,1.3,3.4,3.1,3.4c0.1,0,0.2,0,0.3,0h4.7c-1.8,0.1-3.2,1.6-3.1,3.4c0.1,1.7,1.4,3.1,3.1,3.1h-6.6c-1.8-0.1-3.4,1.3-3.4,3.1
	c-0.1,1.8,1.3,3.4,3.1,3.4c0.1,0,0.2,0,0.3,0h38.1c1.8-0.1,3.2-1.6,3.1-3.4c-0.1-1.7-1.4-3.1-3.1-3.1h6.6c1.8-0.1,3.2-1.6,3.1-3.4
	C1517.3,401.1,1515.9,399.7,1514.3,399.6L1514.3,399.6z"/>
<path class="st13" d="M1893.6,361.4h-3.6c1.4-0.1,2.4-1.3,2.4-2.6c-0.1-1.3-1.1-2.3-2.4-2.4h-29c-1.4,0.1-2.4,1.3-2.4,2.6
	c0.1,1.3,1.1,2.3,2.4,2.4h3.6c-1.4-0.1-2.6,1-2.6,2.4c-0.1,1.4,1,2.6,2.4,2.6c0.1,0,0.2,0,0.3,0h-5c-1.4,0.1-2.4,1.3-2.4,2.6
	c0.1,1.3,1.1,2.3,2.4,2.4h29c1.4,0.1,2.6-1,2.6-2.4s-1-2.6-2.4-2.6c-0.1,0-0.2,0-0.3,0h5c1.4,0.1,2.6-1,2.6-2.4
	c0.1-1.4-1-2.6-2.4-2.6C1893.7,361.4,1893.7,361.4,1893.6,361.4L1893.6,361.4z"/>
<path class="st13" d="M1604.5,353.1h-4.7c1.8,0.1,3.4-1.3,3.4-3.1c0.1-1.8-1.3-3.4-3.1-3.4c-0.1,0-0.2,0-0.3,0h-38.1
	c-1.8-0.1-3.4,1.3-3.4,3.1s1.3,3.4,3.1,3.4c0.1,0,0.2,0,0.3,0h4.7c-1.8,0.1-3.2,1.6-3.1,3.4c0.1,1.7,1.4,3.1,3.1,3.1h-6.6
	c-1.8-0.1-3.4,1.3-3.4,3.1c-0.1,1.8,1.3,3.4,3.1,3.4c0.1,0,0.2,0,0.3,0h38.1c1.8-0.1,3.2-1.6,3.1-3.4c-0.1-1.7-1.4-3.1-3.1-3.1h6.6
	c1.8-0.1,3.2-1.6,3.1-3.4C1607.6,354.6,1606.2,353.2,1604.5,353.1L1604.5,353.1z"/>
<linearGradient id="SVGID_2_" gradientUnits="userSpaceOnUse" x1="1679.7117" y1="347.4723" x2="1679.7117" y2="378.1861" gradientTransform="matrix(1 0 0 -1 0 1082)">
	<stop  offset="0" style="stop-color:#808080;stop-opacity:0.25"/>
	<stop  offset="0.54" style="stop-color:#808080;stop-opacity:0.12"/>
	<stop  offset="1" style="stop-color:#808080;stop-opacity:0.1"/>
</linearGradient>
<polygon class="st16" points="1719.9,713.3 1732.9,713.3 1732.9,705.2 1732.9,703.8 1626.6,703.8 1626.6,705.2 1626.6,713.3 
	1639.5,713.3 1639.5,722.7 1618.3,722.7 1618.3,734.5 1741.1,734.5 1741.1,722.7 1719.9,722.7 "/>
<linearGradient id="SVGID_3_" gradientUnits="userSpaceOnUse" x1="1765.4417" y1="247.7431" x2="1765.4417" y2="565.5956" gradientTransform="matrix(1 0 0 -1 -85.73 1008.26)">
	<stop  offset="0" style="stop-color:#808080;stop-opacity:0.25"/>
	<stop  offset="0.54" style="stop-color:#808080;stop-opacity:0.12"/>
	<stop  offset="1" style="stop-color:#808080;stop-opacity:0.1"/>
</linearGradient>
<path class="st17" d="M1806.9,721.9L1806.9,721.9c0.9-12.7,0.6-23.7-0.7-33.1c-1.5-10.9-4.2-19.7-7.6-26.9
	c-6.8-14.4-16.6-22.1-25.1-26.4c-5.7-2.9-12-4.6-18.4-5c-0.6-4.5-4.8-7.7-9.3-7c-3.6,0.5-6.5,3.4-7,7v-21.2h-44.9v-11.8h60.5
	c3.8,0,6.8-3.1,6.8-6.8v-61.9c0-3.8-3.1-6.8-6.8-6.8h-23v-61c3.3-1.5,5.4-4.8,5.4-8.4c0-0.1,0-0.2,0-0.3s0-0.2,0-0.3
	c0-5.1-4.1-9.2-9.2-9.2c-5.1,0-9.2,4.1-9.2,9.2l0,0c0,0.1,0,0.2,0,0.3s0,0.2,0,0.3c0,3.4,1.9,6.5,4.9,8.1v61.3h-85.1v-61.3
	c3-1.6,4.9-4.7,4.9-8.1c0-0.1,0-0.2,0-0.3c0-0.1,0-0.2,0-0.3c0-5.1-4.1-9.2-9.2-9.2s-9.2,4.1-9.2,9.2c0,0.1,0,0.2,0,0.3
	c0,0.1,0,0.2,0,0.3c0,3.6,2.1,6.9,5.4,8.4v61H1605c-3.8,0-6.8,3.1-6.8,6.8v61.9c0,3.8,3.1,6.8,6.8,6.8h60.5v11.8h-44.9v17.4
	c-0.4-1.1-1-2.1-1.8-3l-0.2-0.2c-3.2-3.2-8.5-3.2-11.7,0c-1.6,1.6-2.4,3.7-2.4,5.8v1.2c0,0-8.5,0-18.6,5c-8.6,4.2-18.3,12-25.1,26.4
	c-3.4,7.2-6.2,16-7.6,26.9c-1.3,9.4-1.6,20.4-0.7,33.1c-19,15.7,4.8,38.6,4.8,38.6c19.5,0,19-32.3,18.8-37.8h0.1
	c0,0-0.1-0.3-0.1-0.8l0,0l0,0c-1.4-9-1.8-18.2-1.2-27.3c0.5-7,1.9-14.3,4.6-20.9c2-5.2,5.2-9.9,9.4-13.7c4.4-3.9,9.9-6.6,15.7-7.6
	v5.3c0,4.6,3.7,8.3,8.3,8.3c3.5,0,6.7-2.2,7.8-5.6v43.4h118.1v-42.5c0.2,1.6,1,3.2,2.1,4.4l0.2,0.2c3.2,3.2,8.4,3.3,11.7,0.1
	c1.6-1.6,2.5-3.7,2.4-5.9v-7.6c5.7,1.1,11,3.7,15.4,7.5c4.1,3.8,7.3,8.5,9.4,13.7c2.7,6.6,4.1,14,4.6,20.9
	c0.6,9.1,0.2,18.3-1.2,27.3l0,0l0,0c-0.1,0.5-0.1,0.8-0.1,0.8h0.1c-0.2,5.5-0.6,37.8,18.8,37.8
	C1802.1,760.5,1825.9,737.7,1806.9,721.9z"/>
<linearGradient id="SVGID_4_" gradientUnits="userSpaceOnUse" x1="1648.991" y1="248.2335" x2="1648.991" y2="347.4654" gradientTransform="matrix(1 0 0 -1 0 1082)">
	<stop  offset="0" style="stop-color:#808080;stop-opacity:0.25"/>
	<stop  offset="0.54" style="stop-color:#808080;stop-opacity:0.12"/>
	<stop  offset="1" style="stop-color:#808080;stop-opacity:0.1"/>
</linearGradient>
<polygon class="st18" points="1624.2,735.6 1624.2,746.3 1638.4,746.3 1638.4,762.9 1638.4,762.9 1638.4,777.1 1638.4,798.3 
	1638.4,810.1 1638.4,817.2 1621.8,817.2 1621.8,833.8 1666.7,833.8 1666.7,817.2 1659.6,817.2 1659.6,810.1 1659.6,810.1 
	1659.6,798.3 1659.6,798.3 1659.6,777.1 1659.6,777.1 1659.6,762.9 1659.6,762.9 1659.6,746.3 1676.2,746.3 1676.2,735.6 
	1676.2,734.5 1624.2,734.5 "/>
<linearGradient id="SVGID_5_" gradientUnits="userSpaceOnUse" x1="1706.8837" y1="248.2335" x2="1706.8837" y2="347.4654" gradientTransform="matrix(1 0 0 -1 0 1082)">
	<stop  offset="0" style="stop-color:#808080;stop-opacity:0.25"/>
	<stop  offset="0.54" style="stop-color:#808080;stop-opacity:0.12"/>
	<stop  offset="1" style="stop-color:#808080;stop-opacity:0.1"/>
</linearGradient>
<polygon class="st19" points="1680.9,735.6 1680.9,746.3 1702.2,746.3 1702.2,762.9 1702.2,762.9 1702.2,777.1 1702.2,798.3 
	1702.2,810.1 1702.2,817.2 1685.6,817.2 1685.6,833.8 1730.5,833.8 1730.5,817.2 1723.4,817.2 1723.4,810.1 1723.4,798.3 
	1723.4,777.1 1723.4,762.9 1723.4,762.9 1723.4,746.3 1732.9,746.3 1732.9,735.6 1732.9,734.5 1680.9,734.5 "/>
<path class="st6" d="M1609.3,525h140.9c4.9,0,8.9,4,8.9,8.9v55.8c0,4.9-4,8.9-8.9,8.9h-140.9c-4.9,0-8.9-4-8.9-8.9v-55.8
	C1600.4,529,1604.4,525,1609.3,525z"/>
<rect x="1613" y="587.3" class="st2" width="133.3" height="1.4"/>
<rect x="1613" y="536.5" class="st20" width="133.3" height="50.6"/>
<circle class="st2" cx="1644.1" cy="562.9" r="18.4"/>
<circle class="st21" cx="1644.1" cy="561.8" r="18.4"/>
<circle class="st2" cx="1715.3" cy="562.9" r="18.4"/>
<circle class="st21" cx="1715.3" cy="561.8" r="18.4"/>
<rect x="1665.9" y="598.6" class="st6" width="27.6" height="16.1"/>
<rect x="1622.2" y="610.1" class="st6" width="115" height="92"/>
<polygon class="st6" points="1731.4,702 1731.4,711.2 1718.8,711.2 1718.8,720.4 1640.6,720.4 1640.6,711.2 1628,711.2 1628,702 "/>
<polygon class="st20" points="1731.4,702 1731.4,711.2 1718.8,711.2 1718.8,720.4 1640.6,720.4 1640.6,711.2 1628,711.2 1628,702 
	"/>
<rect x="1619.9" y="720.4" class="st6" width="119.6" height="11.5"/>
<rect x="1625.7" y="731.9" class="st6" width="50.6" height="11.5"/>
<rect x="1680.9" y="731.9" class="st6" width="50.6" height="11.5"/>
<rect x="1623.4" y="812.4" class="st6" width="43.7" height="16.1"/>
<polygon class="st6" points="1639.5,759.5 1639.5,773.3 1639.5,794 1639.5,805.5 1639.5,812.4 1660.2,812.4 1660.2,805.5 
	1660.2,794 1660.2,773.3 1660.2,759.5 1660.2,743.4 1639.5,743.4 "/>
<polygon class="st6" points="1701.6,743.4 1701.6,759.5 1701.6,773.3 1701.6,794 1701.6,805.5 1701.6,812.4 1722.2,812.4 
	1722.2,805.5 1722.2,794 1722.2,773.3 1722.2,759.5 1722.2,743.4 "/>
<rect x="1685.5" y="812.4" class="st6" width="43.7" height="16.1"/>
<path class="st6" d="M1622.7,629.6v27.6c0,0.2,0,0.4,0,0.6c-0.4,4.4-4.3,7.7-8.7,7.4c-4.2-0.3-7.4-3.8-7.4-8v-27.6c0-4.4,3.6-8,8-8
	c2.1,0,4.2,0.8,5.7,2.4l0.2,0.2c1.2,1.3,2,3.1,2.1,4.9C1622.7,629.2,1622.7,629.4,1622.7,629.6z"/>
<path class="st6" d="M1753.2,631.9v27.6c0,4.4-3.6,8-8,8.1c-2.1,0-4.2-0.8-5.7-2.4l-0.2-0.2c-1.4-1.5-2.1-3.4-2.1-5.5v-27.6
	c0-4.4,3.6-8,8.1-8C1749.6,623.9,1753.2,627.5,1753.2,631.9L1753.2,631.9z"/>
<path class="st6" d="M1606.6,630.8V652c-5.7,1-11,3.5-15.3,7.4c-4,3.7-7.1,8.3-9.1,13.4c-2.7,6.4-4,13.6-4.5,20.4
	c-0.7,9.1-0.2,18.3,1.3,27.3h-23c-1-12.7-0.7-23.6,0.6-33c1.4-10.6,4-19.1,7.4-26.1c6.7-14,16.1-21.6,24.5-25.7
	C1598.3,630.8,1606.6,630.8,1606.6,630.8z"/>
<path class="st6" d="M1560.6,757.2c0,0-23.1-22.2-4.7-37.6h22.9C1578.9,719.7,1581.3,757.2,1560.6,757.2z"/>
<path class="st20" d="M1560.6,757.2c0,0-23.1-22.2-4.7-37.6h22.9C1578.9,719.7,1581.3,757.2,1560.6,757.2z"/>
<rect x="1640.6" y="623.9" class="st20" width="78.2" height="59.8"/>
<rect x="1639.5" y="743.4" class="st20" width="20.7" height="16.1"/>
<rect x="1639.5" y="773.3" class="st20" width="20.7" height="20.7"/>
<rect x="1639.5" y="805.5" class="st20" width="20.7" height="6.9"/>
<rect x="1701.6" y="743.4" class="st20" width="20.7" height="16.1"/>
<rect x="1701.6" y="773.3" class="st20" width="20.7" height="20.7"/>
<rect x="1701.6" y="805.5" class="st20" width="20.7" height="6.9"/>
<path class="st20" d="M1606.6,630.8V652c-5.7,1-11,3.5-15.3,7.4l-2.9-23.7C1598.3,630.8,1606.6,630.8,1606.6,630.8z"/>
<path class="st20" d="M1582.2,672.7c-2.7,6.4-4,13.6-4.5,20.4l-21.1-5.7c1.4-10.6,4-19.1,7.4-26.1L1582.2,672.7z"/>
<path class="st6" d="M1752.9,630.8V652c5.7,1,11,3.5,15.3,7.4c4,3.7,7.1,8.3,9.1,13.3c2.7,6.4,4,13.6,4.5,20.4
	c0.7,9.1,0.2,18.3-1.3,27.3h23c1-12.7,0.7-23.6-0.6-33c-1.4-10.6-4-19.1-7.4-26.1c-6.7-14-16.1-21.6-24.5-25.7
	C1761.1,630.8,1752.9,630.8,1752.9,630.8z"/>
<path class="st6" d="M1798.8,757.2c0,0,23.1-22.2,4.7-37.6h-22.9C1780.6,719.7,1778.1,757.2,1798.8,757.2z"/>
<path class="st20" d="M1798.8,757.2c0,0,23.1-22.2,4.7-37.6h-22.9C1780.6,719.7,1778.1,757.2,1798.8,757.2z"/>
<path class="st20" d="M1752.9,630.8V652c5.7,1,11,3.5,15.3,7.4l2.9-23.7C1761.1,630.8,1752.9,630.8,1752.9,630.8z"/>
<path class="st20" d="M1777.2,672.7c2.7,6.4,4,13.6,4.5,20.4l21.1-5.7c-1.4-10.6-4-19.1-7.4-26.1L1777.2,672.7z"/>
<rect x="1665.9" y="598.6" class="st2" width="27.6" height="1.9"/>
<path class="st2" d="M1739.2,626.5V665c-1.4-1.5-2.1-3.4-2.1-5.5v-27.6C1737.1,629.9,1737.9,627.9,1739.2,626.5z"/>
<path class="st2" d="M1622.6,629v28.8c-0.1,1.8-0.9,3.5-2.1,4.9v-38.6C1621.8,625.5,1622.5,627.2,1622.6,629z"/>
<rect x="1628" y="702" class="st2" width="103.5" height="1.4"/>
<rect x="1625.7" y="731.9" class="st2" width="50.6" height="1.1"/>
<rect x="1680.9" y="731.9" class="st2" width="50.6" height="1.1"/>
<rect x="1631.3" y="456.9" class="st6" width="7.9" height="68.1"/>
<rect x="1722.1" y="456.9" class="st6" width="7.9" height="68.1"/>
<circle class="st2" cx="1635" cy="457.5" r="9"/>
<circle class="st6" cx="1635" cy="456.9" r="9"/>
<circle class="st2" cx="1726.3" cy="457.5" r="9"/>
<circle class="st6" cx="1726.3" cy="456.9" r="9"/>
<path class="st22" d="M1445.6,665.5c0,0,26.3,51.5,4.9,79.7c-21.4,28.2,1.9,105,1.9,105"/>
<path class="st23" d="M1453.4,649.5c0,9.9-7.3,18-7.3,18s-7.3-8.1-7.3-18c0-9.9,7.3-18,7.3-18S1453.4,639.6,1453.4,649.5z"/>
<path class="st24" d="M1459.2,665.5c0,0-26.3,51.5-4.9,79.7c21.4,28.2-1.9,105-1.9,105"/>
<path class="st25" d="M1451.4,649.5c0,9.9,7.3,18,7.3,18s7.3-8.1,7.3-18c0-9.9-7.3-18-7.3-18S1451.4,639.6,1451.4,649.5z"/>
<path class="st22" d="M1469.9,665.5c0,0,26.3,51.5,4.9,79.7c-21.4,28.2,1.9,105,1.9,105"/>
<path class="st23" d="M1477.7,649.5c0,9.9-7.3,18-7.3,18s-7.3-8.1-7.3-18c0-9.9,7.3-18,7.3-18S1477.7,639.6,1477.7,649.5z"/>
<path class="st23" d="M1473.6,690.8c-6.9,7.2-17.7,7.9-17.7,7.9s0.3-10.9,7.2-18c6.9-7.2,17.7-7.9,17.7-7.9
	S1480.5,683.6,1473.6,690.8z"/>
<path class="st23" d="M1474.3,726.3c-6.9,7.2-17.7,7.9-17.7,7.9s0.3-10.9,7.2-18c6.9-7.2,17.7-7.9,17.7-7.9
	S1481.2,719.2,1474.3,726.3z"/>
<path class="st23" d="M1436.9,745.9c6.5,7.5,6.3,18.4,6.3,18.4s-10.8-1.3-17.3-8.8c-6.5-7.5-6.3-18.4-6.3-18.4
	S1430.4,738.4,1436.9,745.9z"/>
<path class="st23" d="M1443,670c8.3,5.5,10.9,16,10.9,16s-10.7,1.6-19-3.9c-8.3-5.5-10.9-16-10.9-16S1434.7,664.6,1443,670z"/>
<path class="st24" d="M1483.5,665.5c0,0-26.3,51.5-4.9,79.7c21.4,28.2-1.9,105-1.9,105"/>
<path class="st25" d="M1475.8,649.5c0,9.9,7.3,18,7.3,18s7.3-8.1,7.3-18c0-9.9-7.3-18-7.3-18S1475.8,639.6,1475.8,649.5z"/>
<path class="st25" d="M1477.8,691.5c-7,7.1-7.4,17.9-7.4,17.9s10.9-0.6,17.8-7.7s7.4-17.9,7.4-17.9S1484.8,684.4,1477.8,691.5z"/>
<path class="st25" d="M1491.5,740.7c-7,7.1-7.4,17.9-7.4,17.9s10.9-0.6,17.8-7.7c7-7.1,7.4-17.9,7.4-17.9S1498.5,733.7,1491.5,740.7
	z"/>
<path class="st24" d="M1471.4,729.9c0,0,15.8-24.9,38-25.4"/>
<path class="st22" d="M1459.1,714.9c0,0-15.8-24.9-38-25.4"/>
<path class="st24" d="M1457.1,750.4c0,0,15.8-24.9,38-25.4"/>
<circle class="st25" cx="1508.7" cy="704.3" r="4.1"/>
<circle class="st23" cx="1421.5" cy="689.6" r="4.1"/>
<path class="st22" d="M1468.7,758.6c0,0-15.8-24.9-38-25.4"/>
<circle class="st23" cx="1431.1" cy="733.3" r="4.1"/>
<circle class="st25" cx="1495.3" cy="725.1" r="4.1"/>
<path class="st26" d="M1556,820.3c0,0-38.1-7.6-48.2-17.8c-10.2-10.2-55.9-27.9-60.9-15.2c-5.1,12.7-68.6,55.9-25.4,63.5
	c43.2,7.6,101.6,10.2,114.3,5.1S1556,820.3,1556,820.3z"/>
<path class="st27" d="M1421.5,846.1c43.2,7.6,101.6,10.2,114.3,5.1c9.7-3.9,16.4-22.4,19-31.1l1.3,0.3c0,0-7.6,30.5-20.3,35.6
	c-12.7,5.1-71.1,2.5-114.3-5.1c-12.5-2.2-16-7.4-14.7-13.9C1407.8,841.2,1412.2,844.5,1421.5,846.1z"/>
<path class="st23" d="M1967.4,674.6c0,0,9.1,11.9-4.2,30c-13.3,18-24.3,33.2-19.9,44.4c0,0,20.1-33.5,36.5-33.9
	C1996.2,714.6,1985.4,694.7,1967.4,674.6z"/>
<path class="st2" d="M1967.4,674.6c0.8,1.2,1.4,2.4,1.9,3.7c16,18.8,24.5,36.3,9.1,36.7c-14.3,0.4-31.5,26-35.6,32.5
	c0.1,0.5,0.3,1,0.5,1.5c0,0,20.1-33.5,36.5-33.9C1996.2,714.6,1985.4,694.7,1967.4,674.6z"/>
<path class="st25" d="M1984.4,689.8c0,4.2-0.5,7.6-1.1,7.6c-0.6,0-1.1-3.4-1.1-7.6s0.6-2.2,1.2-2.2S1984.4,685.6,1984.4,689.8z"/>
<path class="st25" d="M1990.2,694.8c-3.7,2-6.9,3.2-7.2,2.7c-0.3-0.5,2.5-2.6,6.2-4.6s2.2-0.5,2.5,0
	C1991.9,693.5,1993.9,692.8,1990.2,694.8z"/>
<path class="st23" d="M1919.2,674.6c0,0-9.1,11.9,4.2,30c13.3,18,24.3,33.2,19.9,44.4c0,0-20.1-33.5-36.5-33.9
	C1890.4,714.6,1901.2,694.7,1919.2,674.6z"/>
<path class="st2" d="M1919.2,674.6c-0.8,1.2-1.4,2.4-1.9,3.7c-16,18.8-24.5,36.3-9.1,36.7c14.3,0.4,31.5,26,35.6,32.5
	c-0.1,0.5-0.3,1-0.5,1.5c0,0-20.1-33.5-36.5-33.9S1901.2,694.7,1919.2,674.6z"/>
<path class="st25" d="M1902.2,689.8c0,4.2,0.5,7.6,1.1,7.6s1.1-3.4,1.1-7.6s-0.6-2.2-1.2-2.2S1902.2,685.6,1902.2,689.8z"/>
<path class="st25" d="M1896.4,694.8c3.7,2,6.9,3.2,7.2,2.7c0.3-0.5-2.5-2.6-6.2-4.6c-3.7-2-2.2-0.5-2.5,0
	C1894.6,693.5,1892.7,692.8,1896.4,694.8z"/>
<path class="st26" d="M1905.1,747.5c0,0,25.5-0.8,33.2-6.3c7.7-5.5,39.2-12,41.2-3.2c1.9,8.8,38.3,43.7,9.5,43.9
	c-28.8,0.2-66.9-4.5-74.6-9.2S1905.1,747.5,1905.1,747.5z"/>
<path class="st27" d="M1989.5,778.8c-28.8,0.2-66.9-4.5-74.6-9.2c-5.8-3.6-8.2-16.3-9-22.2h-0.9c0,0,1.6,20.6,9.3,25.3
	c7.7,4.7,45.8,9.4,74.6,9.2c8.3-0.1,11.2-3,11-7.4C1998.9,777.1,1995.7,778.8,1989.5,778.8z"/>
</svg>
